<?xml version="1.0" encoding="UTF-8" standalone="no"?>
<svg
   id="svg69"
   rein:canvas-zoom="0.8"
   rein:tracking="face"
   version="1.1"
   viewBox="0 0 348.10415 719.99998"
   sodipodi:docname="normal.svg"
   inkscape:version="1.2.1 (9c6d41e410, 2022-07-14, custom)"
   width="348.10416"
   height="720"
   inkscape:export-filename="../HL/character-2.png"
   inkscape:export-xdpi="266.66666"
   inkscape:export-ydpi="266.66666"
   xmlns:inkscape="http://www.inkscape.org/namespaces/inkscape"
   xmlns:sodipodi="http://sodipodi.sourceforge.net/DTD/sodipodi-0.dtd"
   xmlns:xlink="http://www.w3.org/1999/xlink"
   xmlns="http://www.w3.org/2000/svg"
   xmlns:svg="http://www.w3.org/2000/svg"
   xmlns:rein="https://github.com/ker0olos/rein">
  <defs
     id="defs48">
    <inkscape:path-effect
       effect="fill_between_many"
       method="originald"
       linkedpaths="#path977-3-3,0,1"
       id="path-effect2536-5"
       is_visible="true"
       lpeversion="0"
       join="true"
       close="true"
       autoreverse="true" />
    <inkscape:path-effect
       effect="fill_between_many"
       method="originald"
       linkedpaths="#path3842-7-1,0,1"
       id="path-effect4070-3"
       is_visible="true"
       lpeversion="0"
       join="true"
       close="true"
       autoreverse="true" />
    <inkscape:path-effect
       effect="fill_between_many"
       method="originald"
       linkedpaths="#path3842-7-3-7,0,1"
       id="path-effect4128-5"
       is_visible="true"
       lpeversion="0"
       join="true"
       close="true"
       autoreverse="true" />
    <clipPath
       clipPathUnits="userSpaceOnUse"
       id="clipPath511">
      <use
         x="0"
         y="0"
         xlink:href="#g507"
         id="use513" />
    </clipPath>
    <clipPath
       clipPathUnits="userSpaceOnUse"
       id="clipPath702">
      <use
         x="0"
         y="0"
         xlink:href="#g698"
         id="use704" />
    </clipPath>
  </defs>
  <sodipodi:namedview
     id="namedview46"
     pagecolor="#505050"
     bordercolor="#ffffff"
     borderopacity="1"
     inkscape:showpageshadow="0"
     inkscape:pageopacity="0"
     inkscape:pagecheckerboard="1"
     inkscape:deskcolor="#505050"
     showgrid="false"
     inkscape:zoom="2.4240547"
     inkscape:cx="227.71763"
     inkscape:cy="210.39129"
     inkscape:current-layer="g700" />
  <g
     id="right-arm"
     transform="matrix(1.6127679,0,0,1.6127679,0.99906697,2.7285811)"
     rein:xpivot="1.2"
     rein:ypivot="0.65">
    <path
       id="path2"
       d="m 131.107,267.427 -25.9673,0.0883 1.62171,-6.99383 -0.59145,-6.50484 1.41409,-13.2252 -0.30336,-5.78167 0.68395,-36.3235 0.41163,-17.3637 -0.42213,-10.2237 -0.87763,-8.08647 2.07647,-5.20459 13.2886,2.29664 7.51558,4.87109 -0.87301,8.34504 1.23218,9.94346 0.98136,8.68074 0.79804,9.52964 0.43452,7.92238 -1.1688,5.66279 1.17548,3.73892 -0.06,5.08761 0.6422,16.8913 -1.08934,9.01768 -0.98842,14.7912 z"
       fill="#fbc19c" />
    <path
       id="path4"
       d="m 129.492,162.943 2.61155,24.4743 1.59802,9.93006 0.20448,11.8978 -0.16093,11.9908 0.45046,10.419 -0.54879,11.8771 -0.0833,5.42845 -1.15659,2.66726 -0.45165,15.809 -2.72449,0.64351 0.87427,-15.9726 0.38477,-3.38712 1.13588,-12.0243 -0.5347,-11.5344 -0.9149,-20.0555 0.26508,-7.95976 -0.77533,-5.95837 -0.92896,-10.7074 -0.24773,-8.95361 -0.90269,-7.01796 z" />
    <path
       id="path6"
       d="m 108.769,159.94 -0.0856,10.8101 0.89022,7.48722 -0.81581,19.45 0.87971,15.1603 -0.77686,24.7394 -0.81051,13.7308 -0.55277,11.1302 -1.40443,5.3823 -3.05807,0.7889 2.37927,-4.55045 0.0265,-5.98556 -0.0668,-6.79509 -0.70587,-4.39359 1.04518,-3.43244 0.11327,-13.4196 0.0897,-19.349 1.1498,-16.5435 0.10944,-8.30795 0.31419,-9.86714 -1.00885,-9.30305 -1.04544,-4.76232 z" />
  </g>
  <path
     id="torso"
     d="m 6.7626157,440.48218 c 0,0 -5.7289549,-70.68665 -0.098218,-88.45871 3.3312689,-10.51402 7.6327143,-45.72439 16.5813513,-71.20016 6.177401,-17.58642 16.209769,-32.03441 19.094204,-39.40895 3.074629,-7.86076 29.583809,-39.70941 58.862807,-52.71154 26.32085,-11.68854 52.69928,-50.99153 52.69928,-50.99153 l 67.34129,90.28597 c -0.93147,-2.38343 -47.54859,28.4531 -60.01561,51.76356 -7.85953,14.69574 -25.84541,27.46092 -31.83072,53.13571 l 18.09623,90.58788 -142.4990143,18.04736"
     fill="#fbc19c"
     stroke="#000000"
     stroke-width="3.76628"
     style="display:inline" />
  <path
     id="left-leg"
     d="m 41.48309,460.66274 c 13.795601,0.22424 30.477282,4.4201 34.650158,22.42667 7.073503,30.52131 5.675347,149.631 5.527327,160.94747 5.244592,22.26619 19.542235,40.38129 44.149515,55.65146 0,0 0.97545,5.87023 -6.5283,1.53267 -7.50337,-4.33845 2.19388,4.08329 2.19388,4.08329 -0.55373,-0.22945 1.28735,7.58177 -8.87984,-0.76645 -4.80416,-3.94472 0.72793,5.31492 0.72793,5.31492 1.6851,0.44252 -2.38703,7.94153 -11.18308,-4.2913 -5.229528,-9.44253 0.87493,6.8861 0.87493,6.8861 -1.21437,0.44774 -6.674839,5.206 -12.653886,-6.76303 -4.497123,-5.86947 0.193945,8.63541 0.193945,8.63541 0,0 -3.228891,2.421 -9.228839,0.51852 -4.226968,-1.34024 -10.728052,-6.45356 -15.375129,-11.8332 C 54.912981,690.22576 41.26732,659.26507 42.167567,647.17689 36.469642,603.58619 21.772181,462.71978 21.772181,462.71978 c 0,0 8.984504,-2.23176 19.714314,-2.05767 z"
     fill="#ffc299"
     fill-rule="evenodd"
     stroke="#000000"
     stroke-linecap="round"
     stroke-linejoin="round"
     stroke-width="3.4137"
     style="display:inline;paint-order:normal" />
  <g
     id="g2417"
     inkscape:label="shoes"
     style="display:none">
    <path
       style="display:inline;opacity:1;fill:#000000;fill-opacity:1;stroke:none;stroke-width:4;stroke-linecap:square;stroke-opacity:1"
       d="m 46.591742,725.17635 -20.007272,3.4918 28.814638,-32.84739 -2.468428,-49.16225 -10.359821,-7.2519 56.789701,-15.78871 -2.49178,61.02577 8.19512,43.08577 -18.05273,2.59669 -5.047376,-16.35723 z"
       id="path1830"
       sodipodi:nodetypes="ccccccccccc" />
    <path
       style="display:inline;opacity:1;fill:#000000;fill-opacity:1;stroke:none;stroke-width:4;stroke-linecap:square;stroke-opacity:1"
       d="m 185.26633,710.49138 20.0387,-3.30667 -38.04061,-21.4976 -13.89448,-47.22249 7.38611,-10.26456 -58.81858,3.83771 22.49201,56.78436 6.48326,43.37638 17.89826,-3.50658 -0.63365,-17.10654 z"
       id="path1884"
       sodipodi:nodetypes="ccccccccccc" />
  </g>
  <path
     id="right-leg"
     d="m 120.36115,484.13658 c -11.4718,0.0597 -19.72254,3.94517 -12.79401,17.5882 12.93646,46.76834 11.55719,95.89276 19.88091,142.09179 3.02764,7.5265 5.19386,20.64343 14.03081,27.66478 12.59317,10.00493 22.87695,15.92873 22.87695,15.92873 4.05861,3.57513 10.63489,2.05386 7.60138,-5.71483 1.79598,-0.49094 2.82085,5.68636 9.08777,5.11399 4.28266,0.22572 0.35165,-5.41027 0.3861,-7.21122 -0.30846,0.23692 3.22911,5.23513 7.07881,6.46444 1.0817,0.34567 1.85062,0.57662 3.13444,-0.59375 1.22887,-0.80021 -2.30495,-5.90265 -1.60709,-7.48426 2.01109,-0.56097 5.05337,6.72376 8.65905,4.85786 4.8339,-1.54585 -6.6037,-8.23476 -1.40175,-5.72339 3.80348,1.95426 7.45637,5.28221 8.46642,0.6988 -13.7524,-10.89862 -29.84766,-22.11024 -35.66185,-41.22815 -14.62003,-48.07146 -6.62214,-98.19209 -14.9118,-146.27257 0,0 -20.07767,-6.25591 -34.82724,-6.18068 z"
     fill="#ffc299"
     fill-rule="evenodd"
     stroke="#000000"
     stroke-linecap="round"
     stroke-linejoin="round"
     stroke-width="3.4137"
     style="display:inline;paint-order:normal" />
  <g
     id="g6664"
     style="display:none"
     inkscape:label="dress">
    <path
       style="display:inline;fill:#de54e2;fill-opacity:1;stroke:#000000;stroke-width:4;stroke-linecap:square;stroke-opacity:1"
       d="M -6.0157356,407.75085 C -34.378084,314.94711 59.375616,199.76303 59.375616,199.76303 c 0,0 82.373054,-5.4562 130.303284,48.08282 l -41.08548,71.86119 12.91821,74.19636 1.34839,14.27418 c 7.21748,62.48266 -1.55989,147.01446 64.56962,224.93193 L 92.939654,646.726 -1.9294314,656.1165 C -2.8475808,656.21829 -95.060168,449.14425 -6.0157356,407.75085 Z"
       id="path3848"
       sodipodi:nodetypes="cccccccccc" />
    <path
       style="fill:none;fill-opacity:1;stroke:#000000;stroke-width:5.73322;stroke-linecap:square;stroke-opacity:1"
       d="m 96.925201,377.86795 c 0,0 62.917929,-27.01966 11.548589,-104.29488"
       id="path5031" />
    <path
       style="fill:#de54e2;fill-opacity:1;stroke:#000000;stroke-width:5.69956;stroke-linecap:square;stroke-opacity:1"
       d="m 121.25464,376.70983 c 0,0 75.9432,-28.18643 24.24527,-99.30892"
       id="path5029" />
    <path
       style="fill:none;fill-opacity:1;stroke:#000000;stroke-width:4;stroke-linecap:square;stroke-opacity:1"
       d="m 8.4540423,439.83237 c 0,0 -21.0625213,182.47664 25.5460207,180.64452"
       id="path6125" />
    <path
       style="fill:none;fill-opacity:1;stroke:#000000;stroke-width:4;stroke-linecap:square;stroke-opacity:1"
       d="m 53.282599,462.7819 c 0,0 7.577098,167.73997 39.017527,160.56449"
       id="path6127" />
    <path
       style="fill:none;fill-opacity:1;stroke:#000000;stroke-width:4;stroke-linecap:square;stroke-opacity:1"
       d="m 109.65828,462.97829 c 0,0 24.4761,147.99667 55.35292,142.93939"
       id="path6129" />
    <path
       style="fill:none;fill-opacity:1;stroke:#000000;stroke-width:4;stroke-linecap:square;stroke-opacity:1"
       d="m 16.835725,382.89166 c 0,0 -21.6671678,-13.70888 4.372159,-52.68162 26.039326,-38.97275 -7.174902,-26.52258 2.386951,-42.49386 9.561854,-15.97128 27.211507,-45.40827 27.211507,-45.40827"
       id="path6131" />
  </g>
  <g
     id="g34132-3-3"
     style="display:inline;enable-background:new"
     inkscape:label="og-underware"
     transform="matrix(6.437533,-0.24596887,0.24596893,6.4375334,-643.05385,-121.78972)">
    <path
       style="display:inline;opacity:1;fill:#de54e2;fill-opacity:1;fill-rule:evenodd;stroke:#de00e2;stroke-width:0.358498;stroke-linecap:round;stroke-linejoin:round;stroke-miterlimit:4;stroke-dasharray:none;stroke-opacity:1;paint-order:normal"
       d="m 109.2665,100.96799 c 0.15944,-1.861367 0.20224,-2.737463 0.75496,-5.344276 -0.0425,-0.481162 1.85761,3.032016 1.66812,5.273846 1.9237,0.0486 10.82786,-1.041968 11.62307,-1.445843 0.23725,-0.120498 -1.83447,-10.633245 -3.63117,-14.073023 -4.16119,0.128004 -17.99253,1.509059 -22.647543,2.35898 0.365128,0.468963 0.280919,13.250846 0.380649,13.820216 0.117599,0.67095 11.312584,-0.43826 11.701874,-0.55321 z"
       id="path1153"
       inkscape:connector-curvature="0"
       sodipodi:nodetypes="cccsccscc"
       inkscape:label="lower-body" />
    <path
       style="display:inline;fill:#ffffff;fill-opacity:1;stroke:none;stroke-width:0.12369;stroke-linecap:butt;stroke-linejoin:miter;stroke-opacity:1;enable-background:new"
       d="m 106.79955,96.099459 c 0,0 -0.29505,-0.04177 -0.26094,-0.3369 0.0313,-0.26938 0.0423,-0.356328 0.0423,-0.356328 0,0 -0.1803,0.146841 -0.20677,0.450758 -0.0245,0.280292 0.17653,0.544619 0.17653,0.544619 0,0 0.16885,0.305008 0.45203,0.379709 0.28316,0.07474 0.41518,0.09192 0.57079,-0.01775 0.44014,-0.310096 0.97234,-1.053371 0.59114,-1.503145 -0.0778,-0.08289 -0.24362,-0.302397 -0.4743,-0.31627 -0.33841,-0.02072 -0.55156,-0.07281 -0.65309,-0.193571 -0.19494,-0.231295 0.0445,-0.696508 0.0445,-0.696508 -0.42513,0.214331 -0.46392,0.644621 -0.3672,0.991103 0.0601,0.139398 0.061,0.240251 0.27145,0.307521 0.0144,-0.03537 0.0374,-0.09542 0.0794,-0.09822 0.16992,0.0031 0.22828,0.05982 0.23533,0.128647 -0.24644,0.134003 -0.36718,0.210123 -0.43096,0.369581 -0.0785,0.17612 0.0832,0.396633 -0.0699,0.346848 z"
       id="path4976"
       sodipodi:nodetypes="cscscsacssccccccc"
       inkscape:label="hellfire"
       inkscape:spray-origin="#path8665"
       clip-path="none" />
    <path
       style="fill:#ffffff;fill-opacity:1;stroke:none;stroke-width:0.123689;stroke-linecap:butt;stroke-linejoin:miter;stroke-miterlimit:4;stroke-dasharray:none;stroke-opacity:1"
       d="m 106.29115,91.002159 c 0,0 0.0838,-0.185547 -4.7e-4,-0.237007 -0.0843,-0.05146 -0.18637,-0.01054 -0.18637,-0.01054 0,0 -0.13502,0.07802 -0.065,0.170023 0.0814,0.106941 0.0542,0.145713 -0.0116,0.220809 -0.0297,0.03386 0.008,0.172729 0.12915,0.172865 0.16055,0.01969 0.16183,-0.14137 0.16183,-0.14137 l 0.38601,0.0085 c 0,0 0.0183,-0.04818 0.0188,-0.134632 1.9e-4,-0.04934 0.0241,-0.113536 -0.0292,-0.123035 -0.11816,-0.02106 -0.31155,-0.02245 -0.35435,-0.02303 z"
       id="path4978"
       sodipodi:nodetypes="cscsscccsscc"
       inkscape:label="bone"
       clip-path="none" />
    <path
       style="fill:none;fill-opacity:1;stroke:#ffffff;stroke-width:0.123689;stroke-linecap:butt;stroke-linejoin:miter;stroke-opacity:1"
       d="m 107.5603,90.655445 0.0328,0.01161 c 0,0 0.0276,0.0219 0.0805,0.03614 0.0357,0.0096 0.098,0.09352 0.0965,0.172237 -0.001,0.07134 -0.0634,0.138683 -0.0949,0.137652 -0.0767,-0.0025 -0.10297,0.0055 -0.10297,0.0055 l -6.6e-4,0.0063 c 0,0 0.1716,0.05553 0.16185,0.154173 -0.005,0.134933 -0.0907,0.140439 -0.16816,0.153542 l -0.005,0.03658 0.74766,0.08107 c 0.0463,-0.01556 0.35222,0.172516 -0.0265,0.251117 -0.20122,0.04175 -0.69793,-0.02502 -0.69793,-0.02502 l -0.11272,0.0061 c 0,0 0.0103,0.0913 -0.0834,0.115869 -0.0899,0.02373 -0.20219,0.0066 -0.21294,-0.08351 -0.009,-0.07486 -0.34498,0.01297 -0.47092,-0.05722 0,0 0.0173,-0.457628 0.0107,-0.606027 -0.0109,-0.245262 -0.0841,-0.626491 0.14775,-0.67244 0.1842,-0.03651 0.44018,-0.02816 0.51563,-0.02115 0.22855,0.01714 0.50305,0.05186 0.83616,0.07208 0.16906,-0.01739 0.19344,0.232528 0.0537,0.274332 -0.24088,0.03972 -0.48482,-0.02591 -0.70705,-0.04893 z"
       id="path4980"
       sodipodi:nodetypes="ccsssccccccsccsscssccccc"
       inkscape:label="hand"
       clip-path="none" />
    <path
       style="fill:none;fill-opacity:1;stroke:#ffffff;stroke-width:0.123689;stroke-linecap:butt;stroke-linejoin:miter;stroke-opacity:1"
       d="m 114.47988,91.79516 c 0,0 -0.0624,0.02002 -0.15243,0.103281 -0.15878,0.146868 -0.27582,0.489681 -0.15999,0.685861 0.21619,0.366097 0.56338,0.501765 1.01888,0.172841 0.17392,-0.125582 0.34519,-0.352815 0.47144,-0.489048 0.19312,-0.208398 0.17303,-0.235317 0.3244,-0.357004 0.062,-0.0498 -0.15652,-0.147481 -0.28881,-0.407259 -0.11872,-0.23312 -0.32713,-0.444948 -0.44095,-0.573275 -0.1957,-0.220639 -0.72167,-0.312814 -0.87729,-0.05598 -0.10813,0.178462 -0.25368,0.388141 -0.078,0.718647 0.0496,0.08998 0.3109,0.194523 0.18272,0.201937 z"
       id="path4984"
       sodipodi:nodetypes="csssssssscc"
       clip-path="none" />
    <path
       style="fill:none;stroke:#ffffff;stroke-width:0.123689;stroke-linecap:butt;stroke-linejoin:miter;stroke-opacity:1"
       d="m 114.31059,90.994769 c 0,0 0.46132,0.03047 0.3584,0.476218"
       id="path4986"
       clip-path="none" />
    <path
       style="fill:#ffffff;fill-opacity:1;stroke:none;stroke-width:0.123689;stroke-linecap:butt;stroke-linejoin:miter;stroke-miterlimit:4;stroke-dasharray:none;stroke-opacity:1"
       d="m 98.474211,96.022947 c 0,0 -0.05285,-0.196637 -0.150678,-0.182944 -0.09783,0.01369 -0.150775,0.11005 -0.150775,0.11005 0,0 -0.05491,0.145953 0.05755,0.1727 0.130721,0.03109 0.134355,0.07825 0.131075,0.178075 -0.0015,0.04502 0.115824,0.128398 0.209489,0.05174 0.136619,-0.0866 0.03546,-0.211933 0.03546,-0.211933 l 0.303837,-0.238249 c 0,0 -0.01643,-0.04884 -0.07082,-0.116035 -0.03115,-0.03826 -0.05342,-0.10303 -0.10064,-0.07658 -0.104712,0.05866 -0.255117,0.180234 -0.288573,0.206931 z"
       id="path4990"
       sodipodi:nodetypes="cscsscccsscc"
       inkscape:label="bone"
       clip-path="none" />
    <path
       style="fill:none;fill-opacity:1;stroke:#ffffff;stroke-width:0.123689;stroke-linecap:butt;stroke-linejoin:miter;stroke-opacity:1"
       d="m 99.235565,94.949969 0.03271,-0.01182 c 0,0 0.03522,-5.74e-4 0.08516,-0.02312 0.03369,-0.01519 0.135099,0.01013 0.183824,0.07198 0.04416,0.05605 0.03892,0.147443 0.01394,0.166601 -0.06091,0.04671 -0.07609,0.06959 -0.07609,0.06959 l 0.0035,0.0053 c 0,0 0.167893,-0.0659 0.222918,0.01655 0.08197,0.107279 0.01898,0.166078 -0.03264,0.225366 l 0.01924,0.03152 0.629473,-0.411495 c 0.0259,-0.04139 0.38173,-0.09 0.13877,0.210961 -0.12909,0.159896 -0.555475,0.42329 -0.555475,0.42329 l -0.08328,0.0762 c 0,0 0.06584,0.06408 0.009,0.142499 -0.05447,0.07538 -0.152131,0.133346 -0.217595,0.07049 -0.05437,-0.05222 -0.258496,0.228825 -0.400382,0.254426 0,0 -0.276875,-0.364778 -0.376069,-0.475348 -0.163949,-0.182736 -0.462345,-0.431044 -0.312244,-0.613602 0.119264,-0.145053 0.322472,-0.300941 0.38525,-0.34337 0.187578,-0.131701 0.421827,-0.278948 0.692193,-0.474577 0.119686,-0.120667 0.297034,0.0571 0.215512,0.178038 -0.161046,0.183473 -0.391266,0.287443 -0.577689,0.410588 z"
       id="path4992"
       sodipodi:nodetypes="ccsssccccccsccsscssccccc"
       inkscape:label="hand"
       clip-path="none" />
    <path
       style="display:inline;fill:#ffffff;fill-opacity:1;stroke:none;stroke-width:0.12369;stroke-linecap:butt;stroke-linejoin:miter;stroke-opacity:1;enable-background:new"
       d="m 103.60008,93.768131 c 0,0 -0.23399,0.184584 -0.42388,-0.044 -0.17322,-0.208587 -0.22846,-0.276697 -0.22846,-0.276697 0,0 -0.0182,0.23174 0.18319,0.460851 0.18576,0.211324 0.51578,0.24847 0.51578,0.24847 0,0 0.3372,0.08846 0.58681,-0.06449 0.24958,-0.153138 0.35313,-0.236827 0.38133,-0.425078 0.0797,-0.532456 -0.0902,-1.430688 -0.67882,-1.465622 -0.11369,-8.44e-4 -0.38696,-0.03275 -0.55631,0.124544 -0.24873,0.230403 -0.43359,0.348579 -0.59103,0.338632 -0.3019,-0.01868 -0.47299,-0.513191 -0.47299,-0.513191 -0.13862,0.455423 0.14583,0.780691 0.46317,0.950026 0.14229,0.05272 0.21591,0.121838 0.40988,0.01604 -0.0167,-0.03443 -0.0431,-0.09284 -0.0169,-0.125081 0.11914,-0.120952 0.20086,-0.123813 0.25556,-0.08131 -0.0733,0.27077 -0.10157,0.410681 -0.0304,0.566911 0.0731,0.178397 0.34428,0.213795 0.20248,0.290179 z"
       id="path4996"
       sodipodi:nodetypes="cscscsacssccccccc"
       inkscape:label="hellfire"
       inkscape:spray-origin="#path8665"
       clip-path="none" />
    <path
       id="path4998"
       style="fill:#ffffff;fill-opacity:1;stroke:none;stroke-width:0.0618448;stroke-dasharray:none;stroke-dashoffset:0;stroke-opacity:1"
       d="m 105.49079,89.165394 c -0.002,-0.0073 -0.003,-0.01119 -0.003,-0.01119 -0.79608,-1.256745 -1.99929,-0.160511 -1.99929,-0.160511 0,0 -0.60457,0.702503 -0.35728,1.089997 0.8193,0.82518 1.76477,0.413634 1.76477,0.413634 0.83658,-0.331877 0.6247,-1.221964 0.59495,-1.331927 z m -0.80542,0.997067 -0.0371,0.225131 -0.044,0.09631 -0.16061,-0.0781 -0.17895,-0.06672 -0.13464,-0.142921 -0.0585,-0.130558 -0.0116,-0.193355 0.07,-0.0897 0.26658,0.05107 0.22346,0.176736 z m -0.31823,-1.088537 -0.0129,0.167651 -0.0648,0.165245 -0.13473,0.112093 -0.1041,0.04847 -0.0622,-0.05904 -0.069,-0.141339 -0.0277,-0.121506 0.002,-0.09337 0.0281,-0.144451 0.0595,-0.08532 0.0468,-0.07151 0.0854,-0.08146 0.0653,-0.04014 0.11982,0.130207 z m -0.83693,0.755806 0.0293,0.138166 2.4e-4,0.0012 -0.0602,0.01394 -0.0103,-0.04096 -0.0114,-0.05235 -0.0187,-0.08295 -0.0145,-0.0504 0.0594,-0.01715 10e-6,5.6e-5 z"
       clip-path="none" />
    <path
       id="path5002"
       style="fill:#ffffff;fill-opacity:1;stroke:none;stroke-width:0.0618448;stroke-dasharray:none;stroke-dashoffset:0;stroke-opacity:1"
       d="m 112.595,93.718532 c -0.004,-0.0062 -0.007,-0.0093 -0.007,-0.0093 -1.1906,-0.891972 -1.92591,0.56019 -1.92591,0.56019 0,0 -0.31558,0.871452 0.0532,1.145824 1.059,0.480308 1.79661,-0.240268 1.79661,-0.240268 0.66411,-0.607416 0.14986,-1.36418 0.083,-1.456402 z m -0.39868,1.218152 0.0453,0.223621 -0.007,0.105643 -0.17788,-0.01595 -0.19098,0.0012 -0.17663,-0.08577 -0.10105,-0.101269 -0.0796,-0.176608 0.0336,-0.108718 0.26734,-0.04696 0.27167,0.08582 z m -0.68416,-0.904491 0.0475,0.16129 -0.002,0.177487 -0.0861,0.152646 -0.0801,0.08229 -0.0791,-0.03311 -0.11473,-0.107597 -0.0691,-0.10374 -0.0312,-0.08802 -0.0251,-0.145002 0.0253,-0.100895 0.0183,-0.08347 0.0509,-0.106471 0.0467,-0.06071 0.15827,0.07915 z m -0.51385,1.003822 0.0765,0.11874 6.5e-4,0.001 -0.0513,0.03443 -0.0242,-0.03463 -0.0292,-0.04489 -0.0469,-0.0709 -0.0315,-0.04196 0.0495,-0.03715 3e-5,4.7e-5 z"
       clip-path="none" />
    <path
       style="fill:none;fill-opacity:1;stroke:#ffffff;stroke-width:0.123689;stroke-linecap:butt;stroke-linejoin:miter;stroke-opacity:1"
       d="m 118.51948,93.368598 c 0,0 -0.0244,-0.06082 -0.11391,-0.144662 -0.15783,-0.147881 -0.50813,-0.240131 -0.69553,-0.110574 -0.34972,0.241785 -0.46024,0.597784 -0.0996,1.028625 0.13769,0.164495 0.37658,0.319095 0.52148,0.435286 0.22167,0.177744 0.24708,0.155773 0.37927,0.298063 0.0541,0.05825 0.13593,-0.16665 0.38559,-0.317164 0.22404,-0.135076 0.42043,-0.35809 0.5403,-0.480784 0.2061,-0.210964 0.26045,-0.742176 -0.007,-0.879045 -0.18573,-0.0951 -0.40528,-0.225303 -0.72238,-0.02643 -0.0862,0.05586 -0.17181,0.32401 -0.18837,0.196686 z"
       id="path5006"
       sodipodi:nodetypes="csssssssscc"
       clip-path="none" />
    <path
       style="fill:none;stroke:#ffffff;stroke-width:0.123689;stroke-linecap:butt;stroke-linejoin:miter;stroke-opacity:1"
       d="m 119.30573,93.142551 c 0,0 0.003,0.462319 -0.44939,0.391508"
       id="path5008"
       clip-path="none" />
    <path
       style="display:inline;fill:#ffffff;fill-opacity:1;stroke:none;stroke-width:0.12369;stroke-linecap:butt;stroke-linejoin:miter;stroke-opacity:1;enable-background:new"
       d="m 118.57726,90.10184 c 0,0 0.0381,-0.295553 0.33364,-0.265098 0.26973,0.02787 0.35683,0.03795 0.35683,0.03795 0,0 -0.14908,-0.178385 -0.45329,-0.201162 -0.2806,-0.02111 -0.5424,0.183338 -0.5424,0.183338 0,0 -0.30286,0.172711 -0.37405,0.456712 -0.0712,0.284053 -0.0866,0.416271 0.0248,0.570526 0.31555,0.436257 1.06537,0.959191 1.51037,0.572414 0.0819,-0.07886 0.29934,-0.247347 0.31035,-0.478199 0.0166,-0.338639 0.066,-0.552412 0.18544,-0.655435 0.22888,-0.197732 0.69701,0.03585 0.69701,0.03585 -0.21943,-0.422456 -0.65034,-0.455882 -0.99558,-0.354865 -0.13861,0.06192 -0.23946,0.06412 -0.30414,0.27526 0.0355,0.01318 0.0957,0.03634 0.0992,0.0781 -6.3e-4,0.169786 -0.0569,0.228973 -0.12569,0.236896 -0.13698,-0.244771 -0.21471,-0.364537 -0.3749,-0.426322 -0.17696,-0.07632 -0.39556,0.08805 -0.34771,-0.06578 z"
       id="path5012"
       sodipodi:nodetypes="cscscsacssccccccc"
       inkscape:label="hellfire"
       inkscape:spray-origin="#path8665"
       clip-path="none" />
    <path
       style="fill:#ffffff;fill-opacity:1;stroke:none;stroke-width:0.123689;stroke-linecap:butt;stroke-linejoin:miter;stroke-miterlimit:4;stroke-dasharray:none;stroke-opacity:1"
       d="m 105.18785,98.797382 c 0,0 -0.20355,0.0051 -0.21328,0.103367 -0.01,0.09831 0.0714,0.172448 0.0714,0.172448 0,0 0.12893,0.08773 0.1814,-0.01527 0.061,-0.119726 0.10769,-0.112152 0.20393,-0.08546 0.0434,0.01205 0.15206,-0.08234 0.0996,-0.191417 -0.052,-0.153168 -0.19763,-0.08436 -0.19763,-0.08436 l -0.16001,-0.351391 c 0,0 -0.0513,0.0045 -0.12945,0.04151 -0.0445,0.02126 -0.11271,0.02766 -0.0981,0.07978 0.0324,0.11558 0.1151,0.290381 0.13317,0.329183 z"
       id="path5014"
       sodipodi:nodetypes="cscsscccsscc"
       inkscape:label="bone"
       clip-path="none" />
    <path
       style="fill:none;fill-opacity:1;stroke:#ffffff;stroke-width:0.123689;stroke-linecap:butt;stroke-linejoin:miter;stroke-opacity:1"
       d="m 104.3243,97.804797 -0.004,-0.03457 c 0,0 0.008,-0.03437 -0.002,-0.08821 -0.007,-0.03632 0.0417,-0.128916 0.11324,-0.161708 0.0649,-0.02972 0.15246,-0.0031 0.1652,0.02568 0.031,0.0702 0.0497,0.09034 0.0497,0.09034 l 0.006,-0.0021 c 0,0 -0.0245,-0.178689 0.0686,-0.212755 0.12357,-0.05441 0.16588,0.02066 0.21135,0.08479 l 0.0352,-0.01128 -0.25172,-0.708662 c -0.0341,-0.03495 0.002,-0.392195 0.2377,-0.0852 0.12501,0.163109 0.28061,0.639525 0.28061,0.639525 l 0.0545,0.09888 c 0,0 0.0778,-0.0489 0.14061,0.02483 0.0604,0.07069 0.0938,0.179251 0.0173,0.228075 -0.0635,0.04055 0.16153,0.305106 0.153,0.44903 0,0 -0.41971,0.183203 -0.55053,0.253575 -0.2162,0.116314 -0.52779,0.347857 -0.66987,0.158992 -0.11289,-0.150064 -0.21655,-0.384263 -0.24301,-0.455266 -0.0838,-0.213314 -0.17178,-0.475646 -0.29825,-0.784473 -0.0891,-0.144732 0.12542,-0.27524 0.22377,-0.167534 0.1404,0.199718 0.18724,0.447945 0.26303,0.658122 z"
       id="path5016"
       sodipodi:nodetypes="ccsssccccccsccsscssccccc"
       inkscape:label="hand"
       clip-path="none" />
    <path
       style="fill:#ffffff;fill-opacity:1;stroke:none;stroke-width:0.123689;stroke-linecap:butt;stroke-linejoin:miter;stroke-miterlimit:4;stroke-dasharray:none;stroke-opacity:1"
       d="m 101.8909,100.86313 c 0,0 -0.13988,-0.14796 -0.21948,-0.0894 -0.0796,0.0585 -0.0804,0.16845 -0.0804,0.16845 0,0 0.021,0.15452 0.13266,0.12465 0.1298,-0.0347 0.1554,0.005 0.19991,0.0945 0.0201,0.0403 0.16291,0.058 0.20894,-0.0539 0.0791,-0.14109 -0.0694,-0.20335 -0.0694,-0.20335 l 0.15426,-0.35396 c 0,0 -0.0376,-0.0352 -0.11743,-0.0685 -0.0456,-0.0189 -0.0959,-0.0653 -0.12494,-0.0196 -0.0643,0.10135 -0.13893,0.27976 -0.15569,0.31915 z"
       id="path5020"
       sodipodi:nodetypes="cscsscccsscc"
       inkscape:label="bone"
       clip-path="none" />
    <path
       style="fill:none;fill-opacity:1;stroke:#ffffff;stroke-width:0.123689;stroke-linecap:butt;stroke-linejoin:miter;stroke-opacity:1"
       d="m 102.05142,99.557309 0.0232,-0.02593 c 0,0 0.0307,-0.01723 0.064,-0.06079 0.0224,-0.02937 0.12371,-0.05524 0.19596,-0.02394 0.0655,0.02836 0.10427,0.111276 0.0914,0.139998 -0.0314,0.07003 -0.0339,0.09738 -0.0339,0.09738 l 0.006,0.003 c 0,0 0.11647,-0.137719 0.20404,-0.09129 0.12309,0.05549 0.0956,0.137147 0.0783,0.213835 l 0.0319,0.01861 0.35857,-0.661054 c 0.003,-0.04874 0.29321,-0.260481 0.2223,0.119759 -0.0377,0.202018 -0.28785,0.636296 -0.28785,0.636296 l -0.0371,0.106607 c 0,0 0.0884,0.0251 0.0756,0.12115 -0.0121,0.0922 -0.0706,0.18958 -0.15802,0.16536 -0.0726,-0.0201 -0.11884,0.32413 -0.23155,0.41403 0,0 -0.41688,-0.18954 -0.55668,-0.23975 -0.23106,-0.083 -0.61158,-0.15979 -0.56617,-0.39173 0.0361,-0.184292 0.14088,-0.417979 0.17598,-0.48513 0.10254,-0.204978 0.23877,-0.4458 0.38382,-0.746353 0.048,-0.163028 0.28852,-0.0908 0.2742,0.05434 -0.0546,0.237943 -0.20784,0.438765 -0.31342,0.635666 z"
       id="path5022"
       sodipodi:nodetypes="ccsssccccccsccsscssccccc"
       inkscape:label="hand"
       clip-path="none" />
    <path
       style="fill:none;fill-opacity:1;stroke:#ffffff;stroke-width:0.123689;stroke-linecap:butt;stroke-linejoin:miter;stroke-opacity:1"
       d="m 98.245886,99.04033 c 0,0 -0.063,0.01806 -0.155583,0.09847 -0.163291,0.141836 -0.290985,0.480826 -0.181335,0.680528 0.204638,0.372672 0.547424,0.519122 1.012983,0.204582 0.17775,-0.120083 0.356039,-0.341854 0.486481,-0.474076 0.199543,-0.202263 0.180294,-0.229797 0.335393,-0.346695 0.06349,-0.04784 -0.151829,-0.152299 -0.27594,-0.416083 -0.111383,-0.236716 -0.313075,-0.45495 -0.422827,-0.58677 -0.188711,-0.226646 -0.711546,-0.335208 -0.87511,-0.08336 -0.113654,0.174997 -0.265685,0.380028 -0.100389,0.715861 0.04673,0.09149 0.304677,0.20414 0.176327,0.207547 z"
       id="path5026"
       sodipodi:nodetypes="csssssssscc"
       clip-path="none" />
    <path
       style="fill:none;stroke:#ffffff;stroke-width:0.123689;stroke-linecap:butt;stroke-linejoin:miter;stroke-opacity:1"
       d="m 98.10168,98.235041 c 0,0 0.460144,0.04487 0.343347,0.487182"
       id="path5028"
       clip-path="none" />
    <path
       id="path5032"
       style="fill:#ffffff;fill-opacity:1;stroke:none;stroke-width:0.0618448;stroke-dasharray:none;stroke-dashoffset:0;stroke-opacity:1"
       d="m 108.70238,99.261136 c -0.001,-0.0075 -0.002,-0.01149 -0.002,-0.01149 -0.63991,-1.343007 -1.9657,-0.398696 -1.9657,-0.398696 0,0 -0.68433,0.625076 -0.4852,1.039387 0.71462,0.917323 1.70257,0.621923 1.70257,0.621923 0.87028,-0.22934 0.76649,-1.138391 0.75012,-1.251125 z m -0.91899,0.893474 -0.0638,0.21908 -0.0552,0.0904 -0.15011,-0.0968 -0.16967,-0.0877 -0.11657,-0.15801 -0.0424,-0.136624 0.0116,-0.193357 0.0802,-0.08067 0.25855,0.08262 0.2007,0.202216 z m -0.18562,-1.1188 -0.0328,0.164905 -0.0841,0.156298 -0.14719,0.09516 -0.10915,0.03567 -0.0546,-0.06605 -0.0516,-0.148586 -0.013,-0.123949 0.0132,-0.09245 0.0452,-0.140051 0.0693,-0.07759 0.055,-0.0654 0.0945,-0.07065 0.0696,-0.03204 0.10338,0.143616 z m -0.9214,0.65018 0.0126,0.140682 1.1e-4,0.0012 -0.0615,0.0066 -0.005,-0.0419 -0.005,-0.05334 -0.009,-0.08459 -0.008,-0.05178 0.0611,-0.0099 10e-6,5.8e-5 z"
       clip-path="none" />
    <path
       style="fill:#ffffff;fill-opacity:1;stroke:none;stroke-width:0.123689;stroke-linecap:butt;stroke-linejoin:miter;stroke-miterlimit:4;stroke-dasharray:none;stroke-opacity:1"
       d="m 118.55906,98.6769 c 0,0 0.0464,-0.198267 -0.0463,-0.232435 -0.0927,-0.03417 -0.18488,0.02573 -0.18488,0.02573 0,0 -0.11737,0.102675 -0.0309,0.179395 0.10051,0.08918 0.0814,0.132461 0.0313,0.21888 -0.0226,0.03897 0.0414,0.167892 0.16017,0.144602 0.16132,-0.01175 0.1314,-0.170015 0.1314,-0.170015 l 0.38036,-0.06637 c 0,0 0.009,-0.05081 -0.008,-0.135731 -0.009,-0.04844 0.002,-0.116043 -0.0525,-0.11505 -0.12,0.0022 -0.31,0.03827 -0.3521,0.04599 z"
       id="path5036"
       sodipodi:nodetypes="cscsscccsscc"
       inkscape:label="bone"
       clip-path="none" />
    <path
       style="fill:none;fill-opacity:1;stroke:#ffffff;stroke-width:0.123689;stroke-linecap:butt;stroke-linejoin:miter;stroke-opacity:1"
       d="m 119.73711,98.091123 0.0344,0.005 c 0,0 0.0313,0.01614 0.086,0.01987 0.0369,0.0025 0.11427,0.07278 0.12799,0.150311 0.0124,0.07026 -0.0354,0.148333 -0.0664,0.153411 -0.0758,0.01237 -0.1,0.02537 -0.1,0.02537 l 5.6e-4,0.0063 c 0,0 0.1791,0.02127 0.18863,0.119934 0.0215,0.133283 -0.0618,0.155329 -0.13527,0.183184 l 0.002,0.03688 0.74921,-0.06515 c 0.0424,-0.02422 0.37895,0.101089 0.0226,0.251499 -0.18933,0.0799 -0.68958,0.110518 -0.68958,0.110518 l -0.1094,0.0278 c 0,0 0.0277,0.08759 -0.0594,0.129825 -0.0836,0.04069 -0.19708,0.04562 -0.22507,-0.04072 -0.0232,-0.07171 -0.33595,0.07949 -0.47309,0.035 0,0 -0.0716,-0.452321 -0.10677,-0.596642 -0.0581,-0.238524 -0.20374,-0.598374 0.0148,-0.68832 0.17366,-0.07147 0.42641,-0.112813 0.50179,-0.120536 0.22755,-0.02742 0.50358,-0.04648 0.8343,-0.0911 0.1625,-0.04978 0.23479,0.190694 0.10579,0.258751 -0.22864,0.08558 -0.48066,0.06841 -0.70315,0.08883 z"
       id="path5038"
       sodipodi:nodetypes="ccsssccccccsccsscssccccc"
       inkscape:label="hand"
       clip-path="none" />
    <path
       style="display:inline;fill:#ffffff;fill-opacity:1;stroke:none;stroke-width:0.12369;stroke-linecap:butt;stroke-linejoin:miter;stroke-opacity:1;enable-background:new"
       d="m 120.73427,96.543896 c 0,0 -0.29799,-3.51e-4 -0.30523,-0.297357 -0.006,-0.271098 -0.008,-0.358732 -0.008,-0.358732 0,0 -0.15811,0.17045 -0.14215,0.475101 0.015,0.280958 0.2505,0.514823 0.2505,0.514823 0,0 0.20966,0.278558 0.50043,0.313184 0.29078,0.03454 0.42389,0.0333 0.56276,-0.09701 0.39277,-0.368258 0.8165,-1.1783 0.37647,-1.57071 -0.0885,-0.07125 -0.28329,-0.265621 -0.51367,-0.247297 -0.33801,0.02621 -0.55632,0.0045 -0.67363,-0.100835 -0.22519,-0.20195 -0.0536,-0.695842 -0.0536,-0.695842 -0.39123,0.27127 -0.3698,0.702827 -0.22587,1.032503 0.079,0.129574 0.0939,0.229429 0.31156,0.266805 0.008,-0.03701 0.0238,-0.09966 0.0648,-0.108357 0.16863,-0.02033 0.23435,0.02755 0.25091,0.09463 -0.22544,0.166964 -0.33439,0.259145 -0.37541,0.425877 -0.0533,0.185319 0.13751,0.381234 -0.0211,0.353242 z"
       id="path5042"
       sodipodi:nodetypes="cscscsacssccccccc"
       inkscape:label="hellfire"
       inkscape:spray-origin="#path8665"
       clip-path="none" />
    <path
       id="path5044"
       style="fill:#ffffff;fill-opacity:1;stroke:none;stroke-width:0.0618448;stroke-dasharray:none;stroke-dashoffset:0;stroke-opacity:1"
       d="m 113.98501,94.858562 c -4.2e-4,0.0076 -5.2e-4,0.01162 -5.2e-4,0.01162 0.36249,1.442828 1.84847,0.778521 1.84847,0.778521 0,0 0.79416,-0.477846 0.68065,-0.923289 -0.51968,-1.040242 -1.54648,-0.945473 -1.54648,-0.945473 -0.89843,0.05321 -0.97594,0.964876 -0.98212,1.078625 z m 1.07715,-0.694698 0.10572,-0.202194 0.0719,-0.07769 0.12808,0.124471 0.14905,0.119404 0.0831,0.177896 0.0146,0.142304 -0.0495,0.187273 -0.0946,0.06327 -0.23718,-0.131987 -0.15688,-0.237824 z m -0.0387,1.133439 0.0647,-0.155187 0.1133,-0.13664 0.16306,-0.06426 0.11403,-0.01344 0.0405,0.07553 0.0213,0.155846 -0.0117,0.12407 -0.0312,0.08802 -0.0719,0.128394 -0.0832,0.0624 -0.0668,0.05326 -0.10658,0.05063 -0.0746,0.01768 -0.073,-0.161183 z m 1.03152,-0.455703 0.0154,-0.140397 1.3e-4,-0.0012 0.0616,0.0056 -0.003,0.04213 -0.006,0.05329 -0.008,0.08464 -0.002,0.05241 -0.0618,-0.0023 v -5.8e-5 z"
       clip-path="none" />
    <path
       style="display:inline;fill:#ffffff;fill-opacity:1;stroke:none;stroke-width:0.12369;stroke-linecap:butt;stroke-linejoin:miter;stroke-opacity:1;enable-background:new"
       d="m 115.79809,97.938926 c 0,0 0.0621,-0.291415 0.35424,-0.236888 0.26654,0.04991 0.3525,0.06699 0.3525,0.06699 0,0 -0.1339,-0.189989 -0.43528,-0.237605 -0.27792,-0.04401 -0.55557,0.138261 -0.55557,0.138261 0,0 -0.31601,0.147215 -0.41022,0.424526 -0.0942,0.277274 -0.12057,0.407787 -0.022,0.570653 0.27875,0.460631 0.98322,1.04322 1.45842,0.694215 0.0881,-0.07179 0.3186,-0.222009 0.34848,-0.451172 0.0443,-0.336156 0.11098,-0.545156 0.23851,-0.638052 0.24428,-0.178419 0.6917,0.09271 0.6917,0.09271 -0.18419,-0.438985 -0.6108,-0.507588 -0.96316,-0.435193 -0.14314,0.05035 -0.24391,0.0442 -0.32565,0.249397 0.0344,0.01636 0.0925,0.04406 0.0925,0.08595 -0.0145,0.169201 -0.0755,0.223546 -0.14464,0.225784 -0.11662,-0.255146 -0.18414,-0.38089 -0.33871,-0.455592 -0.17021,-0.09051 -0.40145,0.05539 -0.34115,-0.09392 z"
       id="path5048"
       sodipodi:nodetypes="cscscsacssccccccc"
       inkscape:label="hellfire"
       inkscape:spray-origin="#path8665"
       clip-path="none" />
    <path
       style="fill:none;fill-opacity:1;stroke:#ffffff;stroke-width:0.123689;stroke-linecap:butt;stroke-linejoin:miter;stroke-opacity:1"
       d="m 98.569016,92.332273 c 0,0 -0.06535,0.005 -0.172266,0.06501 -0.188575,0.105927 -0.382114,0.412135 -0.315064,0.62987 0.12514,0.406326 0.431277,0.618998 0.950775,0.404991 0.198344,-0.08171 0.417756,-0.262891 0.572216,-0.366039 0.23629,-0.157785 0.223,-0.188639 0.398513,-0.271798 0.0718,-0.03403 -0.117933,-0.179829 -0.186203,-0.463246 -0.0613,-0.254335 -0.21472,-0.508813 -0.29558,-0.660085 -0.139042,-0.260093 -0.629169,-0.47203 -0.840235,-0.258415 -0.146661,0.148431 -0.336974,0.318525 -0.242923,0.680825 0.02728,0.09904 0.25716,0.261477 0.130767,0.238886 z"
       id="path5050"
       sodipodi:nodetypes="csssssssscc"
       clip-path="none" />
    <path
       style="fill:none;stroke:#ffffff;stroke-width:0.123689;stroke-linecap:butt;stroke-linejoin:miter;stroke-opacity:1"
       d="m 98.590451,91.514455 c 0,0 0.441596,0.13689 0.237859,0.546495"
       id="path5052"
       clip-path="none" />
    <path
       style="fill:#ffffff;fill-opacity:1;stroke:none;stroke-width:0.123689;stroke-linecap:butt;stroke-linejoin:miter;stroke-miterlimit:4;stroke-dasharray:none;stroke-opacity:1"
       d="m 118.76271,88.858892 c 0,0 -0.19056,0.07173 -0.16742,0.167762 0.0232,0.09604 0.1242,0.139353 0.1242,0.139353 0,0 0.1506,0.04045 0.16628,-0.07408 0.0182,-0.133126 0.0648,-0.141331 0.16448,-0.147779 0.045,-0.0029 0.11652,-0.127767 0.0311,-0.213529 -0.0995,-0.127546 -0.21437,-0.01467 -0.21437,-0.01467 l -0.26668,-0.279216 c 0,0 -0.047,0.0211 -0.1086,0.08178 -0.035,0.03472 -0.0973,0.06319 -0.0664,0.107613 0.0686,0.09851 0.2042,0.236371 0.23402,0.267071 z"
       id="path5056"
       sodipodi:nodetypes="cscsscccsscc"
       inkscape:label="bone"
       clip-path="none" />
    <path
       style="fill:none;fill-opacity:1;stroke:#ffffff;stroke-width:0.123689;stroke-linecap:butt;stroke-linejoin:miter;stroke-opacity:1"
       d="m 117.62075,88.205542 -0.0149,-0.0314 c 0,0 -0.004,-0.035 -0.0313,-0.08251 -0.0184,-0.03205 -0.003,-0.135445 0.0537,-0.189956 0.0515,-0.0494 0.14296,-0.05308 0.16445,-0.03009 0.0524,0.05608 0.0767,0.06896 0.0767,0.06896 l 0.005,-0.0039 c 0,0 -0.0819,-0.160685 -0.005,-0.22347 0.0988,-0.09202 0.16344,-0.03505 0.22747,0.01056 l 0.0295,-0.02222 -0.47078,-0.58645 c -0.0437,-0.02178 -0.12672,-0.371168 0.19645,-0.158641 0.1717,0.112921 0.47533,0.511659 0.47533,0.511659 l 0.0839,0.07547 c 0,0 0.0574,-0.07176 0.14095,-0.0228 0.0803,0.04688 0.14752,0.138436 0.0913,0.209705 -0.0467,0.0592 0.25289,0.235007 0.29217,0.373728 0,0 -0.33611,0.311052 -0.4365,0.420533 -0.16592,0.18095 -0.38402,0.502089 -0.58031,0.370462 -0.15597,-0.104586 -0.33089,-0.291663 -0.37923,-0.350015 -0.14932,-0.173874 -0.31866,-0.392685 -0.53967,-0.642736 -0.13174,-0.107378 0.0279,-0.30118 0.15623,-0.231811 0.19827,0.142432 0.32414,0.361444 0.46484,0.535001 z"
       id="path5058"
       sodipodi:nodetypes="ccsssccccccsccsscssccccc"
       inkscape:label="hand"
       clip-path="none" />
    <path
       style="fill:none;fill-opacity:1;stroke:#ffffff;stroke-width:0.123689;stroke-linecap:butt;stroke-linejoin:miter;stroke-opacity:1"
       d="m 101.30745,96.581808 c 0,0 -0.0551,0.03552 -0.12045,0.139265 -0.11528,0.183008 -0.13945,0.544443 0.0233,0.703889 0.3037,0.297542 0.67419,0.33857 1.02886,-0.09719 0.13541,-0.166372 0.24192,-0.430236 0.32854,-0.594539 0.1325,-0.251338 0.10611,-0.272127 0.22076,-0.428893 0.0469,-0.06416 -0.18939,-0.101867 -0.3845,-0.318471 -0.1751,-0.194376 -0.4313,-0.344935 -0.57449,-0.439371 -0.2462,-0.162366 -0.77809,-0.115044 -0.86181,0.17335 -0.0582,0.200392 -0.14439,0.440636 0.11098,0.714295 0.0712,0.07406 0.35071,0.107277 0.22883,0.147666 z"
       id="path5062"
       sodipodi:nodetypes="csssssssscc"
       clip-path="none" />
    <path
       style="fill:none;stroke:#ffffff;stroke-width:0.123689;stroke-linecap:butt;stroke-linejoin:miter;stroke-opacity:1"
       d="m 100.93646,95.852664 c 0,0 0.45345,-0.09016 0.4696,0.367031"
       id="path5064"
       clip-path="none" />
    <path
       style="fill:none;fill-opacity:1;stroke:#ffffff;stroke-width:0.123689;stroke-linecap:butt;stroke-linejoin:miter;stroke-opacity:1"
       d="m 110.86066,90.886394 c 0,0 -0.0647,-0.01075 -0.1828,0.0221 -0.20838,0.05795 -0.4693,0.309229 -0.45605,0.536669 0.0247,0.42444 0.27138,0.703925 0.8269,0.619849 0.2121,-0.0321 0.46836,-0.155792 0.64295,-0.21917 0.26708,-0.09695 0.26152,-0.130078 0.45179,-0.169027 0.0779,-0.01593 -0.0717,-0.202748 -0.0705,-0.494268 10e-4,-0.261609 -0.0873,-0.545318 -0.12981,-0.7115 -0.0731,-0.285729 -0.49859,-0.608334 -0.75447,-0.451157 -0.1778,0.109216 -0.40316,0.22907 -0.39813,0.603344 0.003,0.102688 0.18746,0.315216 0.0701,0.263163 z"
       id="path5076"
       sodipodi:nodetypes="csssssssscc"
       clip-path="none" />
    <path
       style="fill:none;stroke:#ffffff;stroke-width:0.123689;stroke-linecap:butt;stroke-linejoin:miter;stroke-opacity:1"
       d="m 111.07632,90.097232 c 0,0 0.39626,0.238157 0.10081,0.587428"
       id="path5078"
       clip-path="none" />
    <path
       style="display:inline;fill:#ffffff;fill-opacity:1;stroke:none;stroke-width:0.12369;stroke-linecap:butt;stroke-linejoin:miter;stroke-opacity:1;enable-background:new"
       d="m 113.02268,89.393273 c 0,0 -0.24915,0.163437 -0.41843,-0.08075 -0.15438,-0.222872 -0.20354,-0.295527 -0.20354,-0.295527 0,0 -0.0383,0.229274 0.14228,0.475054 0.16661,0.226686 0.49221,0.292439 0.49221,0.292439 0,0 0.32821,0.117546 0.59018,-0.01329 0.26199,-0.130841 0.37242,-0.205145 0.41691,-0.390264 0.12577,-0.523505 0.0345,-1.433104 -0.54865,-1.519147 -0.11321,-0.01086 -0.38263,-0.06614 -0.56504,0.07563 -0.26784,0.207881 -0.4623,0.309514 -0.61828,0.285892 -0.29912,-0.04504 -0.42651,-0.552418 -0.42651,-0.552418 -0.17779,0.441617 0.0776,0.790396 0.3787,0.986749 0.13731,0.06495 0.20446,0.140077 0.40693,0.05166 -0.0129,-0.03567 -0.0349,-0.09629 -0.005,-0.126107 0.12928,-0.110059 0.21088,-0.105838 0.26167,-0.05882 -0.0966,0.263361 -0.13704,0.400302 -0.0796,0.562116 0.0572,0.184099 0.32435,0.242956 0.17642,0.306716 z"
       id="path5088"
       sodipodi:nodetypes="cscscsacssccccccc"
       inkscape:label="hellfire"
       inkscape:spray-origin="#path8665"
       clip-path="none" />
    <path
       style="fill:#ffffff;fill-opacity:1;stroke:none;stroke-width:0.123689;stroke-linecap:butt;stroke-linejoin:miter;stroke-miterlimit:4;stroke-dasharray:none;stroke-opacity:1"
       d="m 99.49474,90.140579 c 0,0 0.05336,-0.196499 -0.03806,-0.233931 -0.09142,-0.03744 -0.18568,0.01916 -0.18568,0.01916 0,0 -0.120931,0.09845 -0.03724,0.178187 0.09728,0.09268 0.07667,0.135263 0.02358,0.219854 -0.02396,0.03814 0.03542,0.169253 0.154939,0.150188 0.161641,-0.006 0.137349,-0.165251 0.137349,-0.165251 l 0.382468,-0.05285 c 0,0 0.0104,-0.05047 -0.003,-0.135915 -0.008,-0.04874 0.006,-0.115912 -0.0484,-0.116838 -0.12001,-0.002 -0.311164,0.02726 -0.353513,0.03348 z"
       id="path5090"
       sodipodi:nodetypes="cscsscccsscc"
       inkscape:label="bone"
       clip-path="none" />
    <path
       style="fill:none;fill-opacity:1;stroke:#ffffff;stroke-width:0.123689;stroke-linecap:butt;stroke-linejoin:miter;stroke-opacity:1"
       d="m 100.69282,89.596925 0.0342,0.0063 c 0,0 0.0307,0.01724 0.0852,0.02291 0.0368,0.0038 0.11162,0.07678 0.12257,0.154752 0.01,0.07066 -0.0406,0.146986 -0.0718,0.15096 -0.0761,0.0097 -0.10078,0.02181 -0.10078,0.02181 l 3.3e-4,0.0063 c 0,0 0.17824,0.02761 0.18426,0.126545 0.0168,0.133963 -0.0672,0.153042 -0.14168,0.178274 l 7.5e-4,0.03692 0.75106,-0.03856 c 0.0432,-0.02271 0.37513,0.114457 0.0137,0.252142 -0.19205,0.07314 -0.69306,0.08601 -0.69306,0.08601 l -0.11032,0.0239 c 0,0 0.0246,0.08852 -0.064,0.127637 -0.085,0.0377 -0.19858,0.0386 -0.22349,-0.04867 -0.0207,-0.07249 -0.33856,0.06754 -0.47403,0.01821 0,0 -0.0555,-0.454575 -0.0856,-0.600052 -0.0496,-0.240434 -0.18241,-0.60522 0.0392,-0.687363 0.17608,-0.06527 0.43014,-0.09763 0.50575,-0.102675 0.22838,-0.01933 0.5049,-0.0286 0.837,-0.06148 0.16417,-0.04399 0.22788,0.198897 0.0965,0.262339 -0.23153,0.07742 -0.48278,0.05133 -0.70586,0.06385 z"
       id="path5092"
       sodipodi:nodetypes="ccsssccccccsccsscssccccc"
       inkscape:label="hand"
       clip-path="none" />
    <path
       style="fill:#ffffff;fill-opacity:1;stroke:none;stroke-width:0.123689;stroke-linecap:butt;stroke-linejoin:miter;stroke-miterlimit:4;stroke-dasharray:none;stroke-opacity:1"
       d="m 121.19817,91.655678 c 0,0 0.0927,-0.181287 0.011,-0.236754 -0.0817,-0.05547 -0.18564,-0.01952 -0.18564,-0.01952 0,0 -0.13863,0.07142 -0.0732,0.166688 0.0761,0.110741 0.0472,0.148161 -0.0222,0.219993 -0.0313,0.03239 -2.2e-4,0.17292 0.12067,0.178894 0.15941,0.02741 0.16845,-0.1334 0.16845,-0.1334 l 0.38516,0.02711 c 0,0 0.0206,-0.04724 0.0253,-0.133566 0.003,-0.04927 0.0295,-0.112244 -0.0233,-0.124303 -0.11701,-0.02673 -0.31011,-0.03745 -0.35283,-0.04009 z"
       id="path5096"
       sodipodi:nodetypes="cscsscccsscc"
       inkscape:label="bone"
       clip-path="none" />
    <path
       style="fill:#ffffff;fill-opacity:1;stroke:none;stroke-width:0.123689;stroke-linecap:butt;stroke-linejoin:miter;stroke-miterlimit:4;stroke-dasharray:none;stroke-opacity:1"
       d="m 112.60005,99.821428 c 0,0 0.009,-0.20342 -0.0885,-0.21987 -0.0974,-0.0165 -0.17695,0.0594 -0.17695,0.0594 0,0 -0.0964,0.1226 0.003,0.18202 0.11525,0.0691 0.10449,0.11513 0.0713,0.209312 -0.015,0.0425 0.0717,0.15735 0.18413,0.11251 0.15638,-0.0414 0.0977,-0.191372 0.0977,-0.191372 l 0.36155,-0.13552 c 0,0 -9.3e-4,-0.0515 -0.0325,-0.13199 -0.0182,-0.0459 -0.0199,-0.11434 -0.0729,-0.10336 -0.11753,0.0243 -0.2976,0.0949 -0.33755,0.11026 z"
       id="path5102"
       sodipodi:nodetypes="cscsscccsscc"
       inkscape:label="bone"
       clip-path="none" />
    <path
       style="fill:none;fill-opacity:1;stroke:#ffffff;stroke-width:0.123689;stroke-linecap:butt;stroke-linejoin:miter;stroke-opacity:1"
       d="m 113.64956,99.02803 0.0347,-0.0014 c 0,0 0.0338,0.01008 0.0882,0.0036 0.0367,-0.0043 0.12575,0.05041 0.15356,0.12407 0.0252,0.06676 -0.007,0.152318 -0.037,0.163048 -0.0722,0.0262 -0.0935,0.0434 -0.0935,0.0434 l 0.002,0.006 c 0,0 0.17995,-0.0122 0.20755,0.083 0.0458,0.12701 -0.032,0.16407 -0.0991,0.20503 l 0.009,0.0359 0.72426,-0.20249 c 0.0372,-0.0316 0.39111,0.0293 0.0687,0.24299 -0.1713,0.11352 -0.65727,0.23605 -0.65727,0.23605 l -0.10238,0.0475 c 0,0 0.0434,0.081 -0.0344,0.13857 -0.0747,0.0554 -0.18526,0.0813 -0.22872,0.002 -0.0361,-0.0662 -0.31547,0.14021 -0.45847,0.12183 0,0 -0.15397,-0.43131 -0.2152,-0.56665 -0.1012,-0.22367 -0.31082,-0.550406 -0.11265,-0.679194 0.15746,-0.102329 0.39822,-0.189672 0.47087,-0.211192 0.21857,-0.069 0.48632,-0.138738 0.8031,-0.243717 0.1505,-0.07895 0.26598,0.14402 0.15178,0.234745 -0.20888,0.126359 -0.45974,0.156055 -0.67462,0.217242 z"
       id="path5104"
       sodipodi:nodetypes="ccsssccccccsccsscssccccc"
       inkscape:label="hand"
       clip-path="none" />
    <path
       style="fill:#ffffff;fill-opacity:1;stroke:none;stroke-width:0.123689;stroke-linecap:butt;stroke-linejoin:miter;stroke-miterlimit:4;stroke-dasharray:none;stroke-opacity:1"
       d="m 112.53595,98.130168 c 0,0 -0.17161,-0.109587 -0.23462,-0.03351 -0.063,0.07607 -0.0371,0.182932 -0.0371,0.182932 0,0 0.0579,0.144808 0.15894,0.08874 0.1175,-0.06518 0.15199,-0.0328 0.21687,0.04313 0.0293,0.03425 0.17211,0.01673 0.18959,-0.103035 0.0425,-0.156068 -0.11671,-0.18042 -0.11671,-0.18042 l 0.0637,-0.38081 c 0,0 -0.0451,-0.025 -0.13054,-0.03794 -0.0488,-0.0073 -0.10892,-0.04007 -0.12596,0.0113 -0.0378,0.113921 -0.0669,0.305115 -0.0736,0.347389 z"
       id="path5108"
       sodipodi:nodetypes="cscsscccsscc"
       inkscape:label="bone"
       clip-path="none" />
    <path
       style="fill:none;fill-opacity:1;stroke:#ffffff;stroke-width:0.123689;stroke-linecap:butt;stroke-linejoin:miter;stroke-opacity:1"
       d="m 112.37477,96.824425 0.0162,-0.03078 c 0,0 0.0256,-0.02417 0.0473,-0.07449 0.0146,-0.03393 0.1066,-0.08361 0.18429,-0.07078 0.0704,0.01162 0.12816,0.08264 0.12263,0.113635 -0.0135,0.07557 -0.009,0.102701 -0.009,0.102701 l 0.006,0.0016 c 0,0 0.0796,-0.161866 0.17578,-0.13808 0.13287,0.02396 0.12599,0.109855 0.12785,0.188442 l 0.0355,0.01031 0.18743,-0.72831 c -0.009,-0.04805 0.22123,-0.323852 0.24472,0.06223 0.0125,0.205123 -0.12482,0.687131 -0.12482,0.687131 l -0.0101,0.112425 c 0,0 0.0918,0.0029 0.10271,0.09918 0.0106,0.0924 -0.0225,0.201051 -0.11317,0.198768 -0.0754,-0.0019 -0.0366,0.343279 -0.12414,0.457851 0,0 -0.45043,-0.08271 -0.59824,-0.09749 -0.24428,-0.02441 -0.63207,-0.0066 -0.64431,-0.242622 -0.01,-0.187537 0.0352,-0.439672 0.053,-0.513335 0.0497,-0.223735 0.12344,-0.490419 0.19121,-0.817186 0.007,-0.169811 0.25785,-0.158108 0.2792,-0.01382 0.005,0.244081 -0.0951,0.476088 -0.1498,0.692726 z"
       id="path5110"
       sodipodi:nodetypes="ccsssccccccsccsscssccccc"
       inkscape:label="hand"
       clip-path="none" />
    <path
       style="fill:#de00e2;fill-opacity:1;stroke:none;stroke-width:0.26764px;stroke-linecap:butt;stroke-linejoin:miter;stroke-opacity:1"
       d="m 97.018379,87.451575 c 0,0 2.912899,-0.05885 3.874861,-0.289337 1.00681,-0.241225 8.50425,-0.809967 11.02601,-1.144456 3.16419,-0.419702 6.41625,-0.57365 7.92171,-0.646188 0.14748,0.01475 0.17845,0.07713 0.4329,1.3685 -0.67357,0.08989 -1.45804,0.21081 -2.14877,0.271195 -4.37127,0.382144 -8.93206,0.970447 -13.57219,1.367027 -2.19023,0.187194 -5.351164,0.623202 -7.371247,0.583624 -0.15838,-0.947247 -0.165945,-0.830719 -0.163274,-1.510365 z"
       id="path26610-2-2"
       sodipodi:nodetypes="cssccsscc" />
    <path
       style="opacity:1;fill:none;fill-opacity:1;stroke:#de00e2;stroke-width:0.358497;stroke-opacity:1"
       d="m 109.96903,95.759251 c 0,0 0.52835,-1.862705 -0.0947,-2.431866"
       id="path4903-1" />
  </g>
  <g
     id="left-arm"
     transform="matrix(1.6127679,0,0,1.6127679,0.99906697,2.7285811)"
     rein:ypivot="0.25"
     rein:xpivot="0.95">
    <path
       id="path50"
       d="m 37.2607,258.531 31.2414,0.0881 -1.95108,-6.9774 0.711575,-6.48957 -1.7013,-13.1942 0.364967,-5.7681 -0.822845,-36.2382 -0.495242,-17.3229 0.507864,-10.1997 1.05589,-8.06748 -2.49822,-5.19237 -15.9876,2.29125 -9.04206,4.85966 1.0503,8.32544 -1.48243,9.9201 -1.18069,8.66035 -0.960123,9.50726 -0.522781,7.90377 1.4062,5.64949 -1.41424,3.73014 0.07208,5.07567 -0.772624,16.8516 1.31059,8.9965 1.18919,14.7565 z"
       fill="#fbc19c" />
    <path
       id="path52"
       d="m 38.927,153.748 -2.61155,24.4743 -1.59803,9.93006 -0.204476,11.8978 0.160933,11.9908 -0.450464,10.419 0.548789,11.8771 0.08326,5.42845 1.1566,2.66726 0.451641,15.809 2.7245,0.64351 -0.874272,-15.9726 -0.384767,-3.38712 -1.13588,-12.0243 0.534696,-11.5344 0.914903,-20.0555 -0.265083,-7.95976 0.77533,-5.95837 0.928967,-10.7074 0.247724,-8.95361 0.902693,-7.01796 z" />
    <path
       id="path54"
       d="m 65.8167,151.914 -0.671033,9.40118 -0.890218,7.48722 0.815813,19.45 -0.879716,15.1603 0.77686,24.7394 0.810518,13.7308 0.55276,11.1302 1.40444,5.3823 3.05807,0.7889 -2.37927,-4.55044 -0.02648,-5.98557 0.06679,-6.79509 0.705867,-4.39358 -1.04518,-3.43245 -0.11327,-13.4196 -0.08973,-19.349 -1.1498,-16.5435 -0.109446,-8.30795 -0.314186,-9.86713 1.00884,-9.30306 1.04544,-4.76232 z" />
  </g>
  <g
     inkscape:label="face"
     rein:xpivot="0"
     rein:ypivot="0.15"
     style="display:inline"
     id="face">
    <path
       id="oval"
       d="m 251.30731,280.6311 c 0,0 -85.45171,-5.93368 -120.75068,-67.25468 -35.298975,-61.32098 -18.25234,-105.46115 -18.25234,-105.46115 0,0 4.37913,-13.666384 11.60738,-25.931371 6.9066,-11.719227 16.47588,-21.923806 24.72986,-27.592685 23.52674,-16.158644 35.17173,-19.998322 50.17982,-23.026778 0,0 18.90326,-11.74345 56.44091,-0.162751 37.53766,11.58069 71.60061,72.439565 71.60061,72.439565 0.13047,-2.97465 27.71703,48.04887 4.66624,77.35739 -17.59304,22.36909 12.79129,31.13158 12.14441,35.06109 0,0 4.29814,19.02824 -6.62338,27.23288 -10.92155,8.20458 -43.08493,34.65644 -85.7428,37.33864 z"
       fill="#fbc19c"
       stroke="#000000"
       stroke-width="3.76628" />
    <path
       id="ear"
       d="m 111.24724,141.16116 c 0,0 -50.481091,-9.16855 -25.683495,33.70765 0.930763,45.47812 45.607305,22.27217 34.245835,10.02553"
       fill="#fbc19c"
       stroke="#000000"
       stroke-width="3.76628" />
    <path
       id="hair"
       d="m 119.66653,150.65004 c 0,0 -22.060408,31.61735 -30.076832,24.27183 -8.016392,-7.34546 2.928093,-27.23223 1.471351,-33.02529 C 89.604455,136.10349 68.94613,145.00732 71.30319,120.28662 73.660138,95.565791 94.285133,109.83703 92.50125,99.574971 90.717448,89.312913 53.422433,69.328799 81.398569,50.177503 c 27.976041,-19.151296 58.038351,-17.3758 58.038351,-17.3758 0,0 11.81551,-26.7754954 19.05873,-28.1447353 7.24319,-1.3692206 -2.41691,20.3199083 10.44653,19.4078873 12.86333,-0.911991 43.30621,-23.72623465 50.05048,-15.1949021 6.74424,8.5313651 7.62651,10.2262871 7.62651,10.2262871 0,0 6.115,-8.405762 23.39481,-3.448533 17.27984,4.957229 35.99537,24.636481 45.736,16.507647 9.7408,-8.128834 13.59376,33.475739 18.94744,36.445651 3.43052,1.90305 21.29096,26.584221 27.28433,17.419023 0,0 13.74449,42.922532 -22.47973,19.071782 -36.22406,-23.850736 -38.49871,-40.143563 -54.15159,-19.815591 -15.65294,20.327971 -34.43307,-9.265658 -34.43307,-9.265658 0,0 -15.90278,2.654455 -9.01615,22.598588 7.21739,20.902121 -39.30122,0.372618 -39.30122,0.372618 2.43818,4.630873 -51.15973,-5.911245 -39.21154,11.140843 22.1312,31.58477 -23.72204,41.71214 -23.72204,40.52756 z"
       fill="#de54e2"
       stroke="#000000"
       stroke-width="3.76628" />
    <path
       id="hair-2"
       d="m 98.094146,113.31092 c 0,0 -14.706299,13.74754 -30.723713,-3.53216 C 51.352971,92.499081 60.180746,76.236413 67.062488,84.261707 73.944137,92.28697 97.549769,95.673492 97.549769,95.673492 L 93.800051,95.29219"
       fill="#de54e2"
       stroke="#000000"
       stroke-width="3.76628" />
    <g
       id="g700"
       clip-path="url(#clipPath702)">
      <g
         id="g698">
        <path
           id="left-eye"
           d="m 222.98044,197.09776 c -14.46269,5.9564 -29.86056,0.63117 -36.19487,-29.86266 -6.33442,-30.49373 23.94558,-32.28213 23.94558,-32.28213 0,0 7.61033,-0.26172 16.99341,11.04356 10.03154,12.0866 11.76377,44.30241 -4.74412,51.10119 z"
           fill="#ffffff"
           stroke="#000000"
           stroke-width="2.41457"
           rein:scale="0.8" />
      </g>
      <path
         id="left-iris"
         d="m 217.40671,188.78878 c -5.39667,-1.45177 -9.11289,-12.01951 -4.33603,-16.32202 8.08812,-7.28518 11.83571,4.59574 11.76923,4.49885 1.19197,1.35217 -2.38001,13.18258 -7.4332,11.82321 z"
         style="display:inline;stroke-width:1.61277" />
    </g>
    <g
       id="g509"
       clip-path="url(#clipPath511)">
      <g
         id="g507">
        <path
           id="right-eye"
           d="m 260.03701,192.93843 c -9.85495,-10.76037 -11.17816,-30.28843 -1.79263,-43.73714 9.0273,-12.93541 19.37225,-14.1821 20.00155,-13.89008 0,0 14.92825,-2.21957 21.90558,12.05907 4.19338,8.58159 5.10117,35.73297 -13.69809,48.98815 -7.03162,4.95794 -20.41941,3.12788 -26.41633,-3.41987 z"
           fill="#ffffff"
           stroke="#000000"
           stroke-width="2.41457"
           rein:scale="0.8" />
      </g>
      <path
         id="right-iris"
         d="m 276.684,186.66153 c 0,0 -9.98453,-11.0333 -1.83514,-16.84487 9.35536,-6.67151 11.70841,4.4857 11.54581,3.85558 0,0 1.26284,19.28419 -9.71067,12.98926 z"
         style="display:inline;stroke-width:1.61277" />
    </g>
    <path
       id="left-eyebrow"
       d="m 188.83008,126.02017 c 0,0 29.42044,-17.00922 39.18623,3.22249"
       fill="none"
       stroke="#000000"
       stroke-width="4.09262" />
    <path
       id="right-eyebrow"
       d="m 254.00203,130.47673 c 0,0 19.77576,-32.147622 41.0943,-13.05064"
       fill="none"
       stroke="#000000"
       stroke-width="4.09262" />
    <path
       id="mouth"
       d="m 277.03856,227.55004 -53.04764,-0.192 c 0,0 6.11566,12.52617 21.70753,14.85672 12.89359,1.6637 24.31876,-3.92894 31.34011,-14.66472 z"
       fill="#ffffff"
       stroke="#000000"
       stroke-width="2.63317"
       rein:scale="0.8" />
  </g>
  <g
     id="g4017"
     transform="matrix(1.6127679,0,0,1.6127679,0.99906697,2.7285811)"
     inkscape:label="wat"
     style="display:none">
    <path
       id="path3995"
       d="m 150.879,171.583 c 0,0 -52.9845,-3.67919 -74.8717,-41.7014 C 54.1201,91.8594 64.6899,64.4902 64.6899,64.4902 c 0,0 2.71529,-8.47387 7.19718,-16.0788 4.28245,-7.26653 10.2159,-13.5939 15.3338,-17.1089 14.5878,-10.0192 21.8083,-12.4 31.1141,-14.2778 0,0 11.721,-7.28155 34.9963,-0.100914 23.2753,7.18063 44.3961,44.9163 44.3961,44.9163 0.0809,-1.84444 17.186,29.7928 2.89331,47.965604 -10.9086,13.87 7.93127,19.3032 7.53017,21.7397 0,0 2.66507,11.7985 -4.10684,16.8858 -6.77193,5.08727 -26.7149,21.4888 -53.165,23.1519 z"
       fill="#fbc19c"
       stroke="#000000"
       stroke-width="2.33529" />
    <path
       id="path3997"
       d="m 68.3596,85.8354 c 0,0 -31.3009,-5.68498 -15.9251,20.9005 0.577121,28.1988 28.2789,13.8099 21.2342,6.21635"
       fill="#fbc19c"
       stroke="#000000"
       stroke-width="2.33529" />
    <path
       id="path3999"
       d="m 73.58,91.719 c 0,0 -13.6786,19.6044 -18.6492,15.0498 -4.97058,-4.55457 1.81557,-16.8854 0.912314,-20.4774 -0.903164,-3.59202 -13.7124,1.92882 -12.2509,-13.3993 1.46143,-15.3282 14.25,-6.47929 13.1439,-12.8423 -1.10605,-6.36301 -24.2309,-18.7542 -6.88424,-30.629 17.3466,-11.8748 35.9868,-10.7739 35.9868,-10.7739 0,0 7.32623,-16.6022 11.8174,-17.4512 4.491156,-0.848988 -1.49861,12.5994 6.477396,12.0339 7.97593,-0.565482 26.8521,-14.7115 31.0339,-9.42163 4.18178,5.28989 4.72883,6.34083 4.72883,6.34083 0,0 3.79162,-5.21201 14.506,-2.13827 10.7144,3.07374 22.319,15.2759 28.3587,10.2356 6.0398,-5.0403 8.42884,20.7567 11.7484,22.5982 2.1271,1.17999 13.2015,16.4836 16.9177,10.8007 0,0 8.5223,26.6142 -13.9386,11.8255 -22.4608,-14.7887 -23.8712,-24.8911 -33.5768,-12.2867 -9.70564,12.6044 -21.3503,-5.74519 -21.3503,-5.74519 0,0 -9.86055,1.6459 -5.59048,14.0123 4.47516,12.9604 -24.3688,0.231043 -24.3688,0.231043 1.5118,2.87138 -31.721696,-3.66528 -24.313196,6.9079 13.722496,19.5842 -14.7089,25.8637 -14.7089,25.1292 z"
       fill="#de54e2"
       stroke="#000000"
       stroke-width="2.33529" />
    <path
       id="path4001"
       d="m 60.204,68.5668 c 0,0 -9.11867,8.52419 -19.0503,-2.19012 -9.93166,-10.7143 -4.45798,-20.798 -0.190942,-15.8219 4.26698,4.97608 18.9037,7.0759 18.9037,7.0759 l -2.32502,-0.236427"
       fill="#de54e2"
       stroke="#000000"
       stroke-width="2.33529" />
    <path
       style="display:inline;fill:none;stroke:#000000;stroke-width:0.503958;stroke-linecap:butt;stroke-linejoin:miter;stroke-opacity:1"
       d="m 626.9183,13.089548 c 0,0 -0.74912,3.273653 -4.53619,3.272852 -3.36186,-6.98e-4 -14.95688,-6.222807 -15.0086,-7.4501978"
       id="path5212"
       sodipodi:nodetypes="csc"
       transform="matrix(3.1247406,0,0,3.1247406,-1778.2797,97.209871)" />
    <path
       style="display:inline;fill:#ffffff;fill-opacity:1;stroke:#000000;stroke-width:0.251979;stroke-linecap:butt;stroke-linejoin:miter;stroke-opacity:1"
       d="m 626.59596,9.9551532 c 0,0 7.31818,-0.15395 8.11592,-4.543172 0.79775,-4.3892227 -6.35611,-9.4113811 -6.35611,-9.4113811 0.0475,-0.00764 -2.79008,-2.0863541 -5.31338,-0.030412 -2.0876,1.7009475 -9.98739,10.2408431 3.55357,13.9849631 z"
       id="path5905"
       sodipodi:nodetypes="cscsc"
       transform="matrix(3.1247406,0,0,3.1247406,-1778.2797,97.209871)" />
    <path
       style="display:inline;fill:#ffffff;fill-opacity:1;stroke:#000000;stroke-width:0.175438;stroke-linecap:butt;stroke-linejoin:miter;stroke-opacity:1"
       d="m 613.14877,6.0126699 c 0,0 6.51084,-2.1101758 1.3994,-5.97573604 -5.19044,-3.92530946 -9.33444,-0.11589687 -10.10136,0.53259996 -0.57368,0.51227318 -3.65639,7.03830458 8.70196,5.44313608 z"
       id="path5907"
       sodipodi:nodetypes="cscc"
       transform="matrix(3.1247406,0,0,3.1247406,-1778.2797,97.209871)" />
    <path
       style="display:inline;fill:#000000;stroke:none;stroke-width:0.167986px;stroke-linecap:butt;stroke-linejoin:miter;stroke-opacity:1"
       d="m 630.89062,5.806803 1.91279,0.02806 -0.26625,-1.139413 -0.79379,-0.9448084 -0.57307,-0.4059998 -0.64926,0.4435427 -0.43645,0.4373741 z"
       id="path7603"
       transform="matrix(3.1247406,0,0,3.1247406,-1778.2797,97.209871)" />
    <path
       style="display:inline;fill:#000000;stroke:none;stroke-width:0.167986px;stroke-linecap:butt;stroke-linejoin:miter;stroke-opacity:1"
       d="m 605.93719,2.7904372 1.75486,0.05098 0.20522,-1.3241646 -1.05083,-0.4949413 -0.77523,-0.1267514 -0.99007,0.3223563 z"
       id="path7605"
       transform="matrix(3.1247406,0,0,3.1247406,-1778.2797,97.209871)" />
  </g>
  <g
     id="g2246"
     transform="matrix(1.6127679,0,0,1.6127679,0.99906697,2.7285811)"
     inkscape:label="girly"
     style="display:none">
    <path
       id="path2228"
       d="m 150.879,171.583 c 0,0 -52.9845,-3.67919 -74.8717,-41.7014 C 54.1201,91.8594 64.6899,64.4902 64.6899,64.4902 c 0,0 2.71529,-8.47387 7.19718,-16.0788 4.28245,-7.26653 10.2159,-13.5939 15.3338,-17.1089 14.5878,-10.0192 21.8083,-12.4 31.1141,-14.2778 0,0 11.721,-7.28155 34.9963,-0.100914 23.2753,7.18063 44.3961,44.9163 44.3961,44.9163 0.0809,-1.84444 17.186,29.7928 2.89331,47.965604 -10.9086,13.87 7.93127,19.3032 7.53017,21.7397 0,0 2.66507,11.7985 -4.10684,16.8858 -6.77193,5.08727 -26.7149,21.4888 -53.165,23.1519 z"
       fill="#fbc19c"
       stroke="#000000"
       stroke-width="2.33529" />
    <path
       style="display:inline;fill:#000000;fill-opacity:1;stroke:#000000;stroke-width:2.87885;stroke-linecap:butt;stroke-linejoin:miter;stroke-opacity:1"
       d="m 72.875437,136.52741 c 0,0 -11.731272,30.0621 -17.359063,23.78981 -5.627792,-6.27228 -0.112172,-25.02203 -1.45792,-30.23231 -1.345657,-5.21028 -13.831583,4.03808 -14.124805,-18.66004 C 39.640427,88.72676 53.784546,100.63935 51.907,91.366552 50.029515,82.093755 24.875318,65.868204 41.270178,46.867319 57.664978,27.866438 76.902362,27.85919 76.902362,27.85919 v 0 c 0,0 5.570083,-25.0864797 10.074906,-26.7289501 4.504823,-1.64247036 -0.06381,18.6832371 8.046581,17.1537861 8.110301,-1.529444 25.807711,-24.0082585 30.712771,-16.5843098 4.9051,7.423946 5.58873,8.9236488 5.58873,8.9236488 0,0 3.2778,-8.0058291 14.62065,-4.415812 11.34297,3.5900025 24.66521,20.543702 30.26769,12.594316 5.60255,-7.949383 11.06648,29.827459 14.68472,32.249051 2.31847,1.551687 15.45971,23.118454 18.60515,14.425906 0,0 11.84686,38.444484 -12.90685,18.630534 -24.75365,-19.813953 -27.38015,-34.566313 -35.85665,-15.158683 -8.47652,19.407629 -22.55831,-6.594519 -22.55831,-6.594519 0,0 -9.91602,3.284987 -4.09339,21.121221 6.1023,18.692981 -24.95421,2.469073 -24.95421,2.469073 1.88536,4.09598 -32.947342,-2.625826 -24.116924,12.295776 C 101.37337,125.87873 72.96128,137.60899 72.875438,136.52743 Z"
       id="path1510"
       sodipodi:nodetypes="csssssccssscssscsscscssc"
       inkscape:label="hair" />
    <path
       style="display:inline;fill:#000000;fill-opacity:1;stroke:#000000;stroke-width:2.87885;stroke-linecap:butt;stroke-linejoin:miter;stroke-opacity:1"
       d="m 56.457532,103.60481 c 0,0 -8.35164,13.34833 -19.785015,-1.56066 -11.433436,-14.908991 -7.000651,-30.235205 -2.044822,-23.280778 4.955768,6.954428 20.20575,8.767691 20.20575,8.767691 L 52.42236,87.386044"
       id="path1512"
       inkscape:label="hair-2" />
    <g
       id="g13329"
       transform="matrix(-2.4466376,0.63129867,0.63129867,2.4466376,19.953665,-89.520206)"
       style="display:inline">
      <path
         style="fill:#de54e2;fill-opacity:1;stroke:none;stroke-width:0.539582;stroke-opacity:1"
         d="m -20.50354,90.061212 -1.653411,-0.668806 -2.086614,-2.396407 -0.557042,-5.584518 4.308253,-0.212592 4.225967,-0.05981 0.63541,2.056662 -0.696113,3.661659 -1.19266,2.175824 z"
         id="path68048"
         sodipodi:nodetypes="cccccccccc" />
      <path
         style="display:inline;fill:#fda8ff;fill-opacity:1;stroke:none;stroke-width:0.0792518;stroke-opacity:1"
         d="m -15.502409,84.101164 -0.330266,-2.359885 -1.108473,-0.657598 -3.156332,0.592519 c 1.017165,1.163099 0.416139,3.094308 4.595071,2.424964 z"
         id="path72224-9"
         sodipodi:nodetypes="ccccc" />
      <path
         style="fill:#000000;stroke:none;stroke-width:0.264583px;stroke-linecap:butt;stroke-linejoin:miter;stroke-opacity:1"
         d="m -23.667499,80.833964 c 0,0 -5.583683,0.728459 -1.415113,1.273107 0,0 3.575947,-0.898874 5.777985,-0.541756 0,0 6.608653,0.158297 7.411996,1.247312 0,0 0.920924,0.140422 0.834152,2.927924 0,0 -1.753498,3.836792 -2.712564,3.765084 0,0 2.44464,-0.89871 3.602335,-3.163085 0,0 1.1179976,-1.571658 1.0981993,-2.801349 0,0 -0.6604701,-2.972169 -3.2849073,-2.926765 0,0 -0.821679,-1.466199 -3.712629,-1.195625 0,0 -7.157736,0.592897 -7.599454,1.415153 z"
         id="path6340"
         sodipodi:nodetypes="ccccccccc" />
      <path
         style="display:inline;fill:#000000;stroke:none;stroke-width:0.264583px;stroke-linecap:butt;stroke-linejoin:miter;stroke-opacity:1"
         d="m -17.152264,79.004392 c -1.011819,-0.605174 -9.158703,1.127432 -9.158703,1.127432 0,0 2.457218,0.34975 3.905201,0.223836 1.447983,-0.125914 5.731234,-0.543977 5.253502,-1.351268 z"
         id="path6684" />
      <path
         style="display:inline;fill:none;fill-opacity:0.383782;stroke:#000000;stroke-width:0.264583px;stroke-linecap:butt;stroke-linejoin:miter;stroke-opacity:1"
         d="m -15.348445,81.68286 c 0,0 0.729752,1.797224 0.210841,3.114169 -0.518911,1.316945 -1.977211,4.078076 -1.977211,4.078076 0,0 -0.548099,0.0024 -0.755904,1.014473 0,0 -0.564322,0.523865 -1.596474,0.07214 -1.032152,-0.451727 -1.138718,0.06371 -1.138718,0.06371 0,0 -1.020021,-0.495454 -1.636782,-0.385185 -0.616761,0.110269 -4.829476,-3.185952 -2.333977,-7.739746"
         id="path6688" />
      <path
         id="path8354"
         style="display:inline;fill:#000000;stroke:none;stroke-width:0.999999px;stroke-linecap:butt;stroke-linejoin:miter;stroke-opacity:1"
         d="m -77.722656,307.42773 c -4.583541,-0.0193 -11.63419,0.8696 -14.840692,2.44602 l 29.596551,-1.03391 c -2.878151,-0.49976 -8.797545,-1.38705 -14.755859,-1.41211 z m 14.755859,1.41211 c 1.129281,0.19609 1.814453,0.33594 1.814453,0.33594 4.886914,7.08046 -7.328125,25.8418 -7.328125,25.8418 0,0 -5.920931,-0.68988 -7.460937,1.79101 0,0 -6.584725,0.77592 -7.753906,-3.17187 -10e-7,0 -3.496294,3.29629 -6.96875,-4.96094 0,0 -4.32212,-17.70807 -0.0761,-19.86581 0.254376,-0.15194 0.460347,0.0782 0.736078,-0.0573 l -2.884583,0.79225 c -9.431803,17.21119 6.491201,29.66872 8.822266,29.25196 2.331065,-0.41677 6.185547,1.45703 6.185547,1.45703 0,0 0.40364,-1.94755 4.304687,-0.24024 3.901047,1.70731 6.033203,-0.27344 6.033203,-0.27344 0.785405,-3.82515 2.857422,-3.83398 2.857422,-3.83398 0,0 5.511418,-10.43663 7.472656,-15.41406 1.961239,-4.97743 -0.767937,-12.75149 -0.767937,-12.75149 z"
         transform="scale(0.26458333)"
         sodipodi:nodetypes="sccscccccccccscsccscc" />
      <path
         style="display:inline;fill:#ffffff;fill-opacity:1;stroke:none;stroke-width:0.264583px;stroke-linecap:butt;stroke-linejoin:miter;stroke-opacity:1"
         d="m -24.351627,85.525158 c 0,0 3.330523,-0.98028 2.197635,0.126572 -2.448612,2.392339 -2.91833,0.463661 -2.197635,-0.126572 z"
         id="path6690"
         sodipodi:nodetypes="sss" />
      <ellipse
         style="display:inline;fill:#ffffff;fill-opacity:1;stroke:none;stroke-width:0.79375;stroke-linejoin:round"
         id="path6994"
         cx="-21.418549"
         cy="86.00666"
         rx="0.36219835"
         ry="0.35275027" />
    </g>
    <g
       id="g13337"
       transform="matrix(-2.4466376,0.63129867,0.63129867,2.4466376,1.4458598,-81.84875)"
       style="display:inline">
      <path
         style="fill:#de54e2;fill-opacity:1;stroke:none;stroke-width:0.539582;stroke-opacity:1"
         d="m -46.526934,91.840564 -1.54546,-0.35149 -1.254738,-0.864028 -1.642967,-2.897385 -0.414888,-2.274798 1.018569,-1.624668 4.523944,-0.923774 3.05941,-0.259272 0.525638,2.552926 -0.215568,1.594259 0.34526,2.12881 -1.03252,1.91628 z"
         id="path66606"
         sodipodi:nodetypes="ccccccccccccc" />
      <path
         style="fill:#fda8ff;fill-opacity:1;stroke:none;stroke-width:0.0792518;stroke-opacity:1"
         d="m -42.367675,85.693504 -0.330266,-2.359885 -1.108473,-0.657598 -3.156332,0.592519 c 1.017165,1.163099 0.416139,3.094308 4.595071,2.424964 z"
         id="path72224"
         sodipodi:nodetypes="ccccc" />
      <path
         style="display:inline;fill:none;fill-opacity:0.383782;stroke:none;stroke-width:0.283172px;stroke-linecap:butt;stroke-linejoin:miter;stroke-opacity:1"
         d="m -50.932218,84.521368 c 0,0 -0.282197,2.68209 0.138001,2.891006 0.420197,0.208914 1.122583,2.308991 1.122583,2.308991 0,0 0.792446,2.166964 2.169313,1.819659 0,0 3.857787,0.729159 4.949568,-1.681353 0,0 1.044396,-5.564793 -0.781568,-7.067174 0,0 -4.817127,-0.03194 -7.597897,1.728871 z"
         id="path7385"
         sodipodi:nodetypes="csccccc" />
      <ellipse
         style="display:inline;fill:#ffffff;fill-opacity:1;stroke:none;stroke-width:0.79375;stroke-linejoin:round"
         id="path7270"
         cx="-48.131546"
         cy="88.160652"
         rx="0.3525618"
         ry="0.34054655" />
      <path
         id="path9779"
         style="display:inline;fill:#000000;stroke:none;stroke-width:0.999999px;stroke-linecap:butt;stroke-linejoin:miter;stroke-opacity:1"
         d="m -164.94531,313.46094 c -1.95186,0.0101 -17.86157,0.26778 -27.29492,5.95703 0,0 -0.057,-0.72374 -0.10114,-0.24364 8.22095,-2.94338 13.27133,-7.21624 28.44489,-4.91066 -0.26217,-0.29547 -0.54456,-0.56368 -0.84961,-0.80273 0,0 -0.0691,-6.8e-4 -0.19922,0 z m 0.8449,-0.31577 c 5.41624,6.10446 2.18244,24.67124 2.18244,24.67124 -3.95062,8.30766 -17.91015,5.79492 -17.91015,5.79492 -4.98221,1.19696 -7.84961,-6.27149 -7.84961,-6.27149 0,0 -2.54202,-7.23702 -4.0625,-7.95703 -1.25154,-0.59265 -0.69596,-8.55734 -0.49037,-10.79144 l -3.3612,2.35394 c 0,0 -0.0864,12.16433 1.31836,12.32227 1.40476,0.15794 3.68164,5.90234 3.68164,5.90234 0,0 3.76907,8.15532 6.86914,7.92188 0,0 2.38601,1.79173 1.57227,2.77539 -0.81374,0.98366 4.58975,0.85354 6.19922,-0.0605 0,0 10.25195,-2.16041 11.80469,-4.51367 0,0 7.30312,-3.76652 7.26953,-10.08203 0,0 0.25868,-19.6453 -4.89453,-21.39453 z"
         transform="scale(0.26458333)"
         sodipodi:nodetypes="sccccsccccsccsccsccccc" />
      <path
         style="fill:#000000;stroke:none;stroke-width:0.264583px;stroke-linecap:butt;stroke-linejoin:miter;stroke-opacity:1"
         d="m -55.928648,86.738843 c 0,0 11.826904,-5.520862 15.078159,-2.875021 0,0 1.921428,-0.562266 -0.517743,-1.322722 -2.43917,-0.760456 -9.321103,0.506681 -9.321103,0.506681 l -5.525727,2.434347 z"
         id="path7469-2" />
      <path
         style="fill:#000000;stroke:none;stroke-width:0.264583px;stroke-linecap:butt;stroke-linejoin:miter;stroke-opacity:1"
         d="m -55.716355,85.905725 -0.518895,-0.355931 0.106092,-0.421167 c 0,0 5.965651,-4.220818 10.880244,-3.96711 1.203412,0.06212 3.063817,-0.164988 3.917929,0.482317 0,0 0.406245,0.474439 -1.085442,0.429177 -1.491687,-0.04526 -4.573563,0.181873 -6.573589,0.786473 z"
         id="path7471"
         sodipodi:nodetypes="cccscscc" />
      <path
         style="fill:#ffffff;fill-opacity:1;stroke:none;stroke-width:0.264583px;stroke-linecap:butt;stroke-linejoin:miter;stroke-opacity:1"
         d="m -48.713919,87.748011 c 0,0 -1.531203,1.867939 -2.313164,0.67305 -0.860541,-1.314966 3.088768,-2.119249 2.313164,-0.67305 z"
         id="path7721"
         sodipodi:nodetypes="sss" />
    </g>
    <path
       style="display:none;fill:none;stroke:#000000;stroke-width:2.56083;stroke-linecap:butt;stroke-linejoin:miter;stroke-opacity:1"
       d="m 111.98045,83.338551 c 0,0 11.87997,-4.48062 24.51961,2.016375"
       id="path66147"
       sodipodi:nodetypes="cc" />
    <path
       style="display:none;fill:none;stroke:#000000;stroke-width:2.56083;stroke-linecap:butt;stroke-linejoin:miter;stroke-opacity:1"
       d="M 146.14041,85.437334 C 158.25228,79.004386 164.56544,78.64892 171.85388,77.2713"
       id="path66149"
       sodipodi:nodetypes="cc" />
    <path
       style="display:none;fill:none;stroke:#000000;stroke-width:2.35663;stroke-linecap:butt;stroke-linejoin:miter;stroke-opacity:1"
       d="m 129.18544,138.61174 c 0,0 16.41286,24.58276 42.68643,0.97629"
       id="path66151"
       sodipodi:nodetypes="cc" />
    <path
       style="fill:#000000;fill-opacity:1;stroke:none;stroke-width:3.0596;stroke-opacity:1"
       d="m 141.28957,136.19263 -0.45307,-4.32978 c 0,0 -0.25949,-1.65251 1.10832,-1.47588 1.3693,0.17635 1.69968,2.25596 1.69968,2.25596 l 1.57772,4.65272 c 0,0 0.8268,1.94792 2.03681,1.78708 1.20983,-0.16101 2.30661,0.0819 2.81781,-1.00389 0.51119,-1.08586 2.27578,-4.47482 2.27578,-4.47482 0,0 0.96266,-0.75092 1.58713,0.27906 0.62461,1.02993 2.76673,2.75726 2.76673,2.75726 0,0 2.32819,2.51098 3.45412,0.20141 1.1259,-2.30957 1.81051,-1.24741 1.05411,-5.71014 -0.75555,-4.46288 0.84764,-4.49933 0.84764,-4.49933 0,0 1.43304,-0.81238 1.79193,2.41727 0.35913,3.22965 1.28444,4.69645 0.85655,7.25857 -0.42753,2.56206 -4.18398,3.95068 -4.18398,3.95068 0,0 -2.6247,1.74631 -4.645,-0.49979 -2.02039,-2.24609 -2.28327,-2.99821 -2.28327,-2.99821 0,0 0.10689,3.23179 -1.10407,4.03203 -1.21096,0.80025 -4.19446,2.62837 -5.66527,1.60833 -1.4708,-1.02003 -3.89964,-0.25281 -5.53952,-6.20852 z"
       id="path70446" />
    <path
       style="display:inline;fill:none;fill-opacity:1;stroke:#000000;stroke-width:0.200251;stroke-opacity:1"
       d="m 149.70274,118.8858 c 0.75653,0.91954 1.64485,1.68591 1.78653,3.32007"
       id="path70675"
       sodipodi:nodetypes="cc" />
    <g
       id="g5504"
       style="display:inline"
       transform="matrix(2.878662,-0.7267477,0.7267477,2.878662,-1646.9316,559.87127)"
       inkscape:label="blushes">
      <g
         id="g5492"
         transform="matrix(0.57372824,0,0,0.57372824,262.23819,4.0978266)">
        <ellipse
           style="display:inline;fill:#ee9a9d;fill-opacity:1;stroke:none;stroke-width:0.899303;stroke-linecap:butt;stroke-linejoin:round;stroke-opacity:1;paint-order:normal"
           id="ellipse5484"
           cx="554.52307"
           cy="246.86725"
           rx="4.5715537"
           ry="3.1679549"
           transform="rotate(-23.220074)" />
        <path
           style="fill:#ffffff;fill-opacity:1;stroke:#000000;stroke-width:0.719442;stroke-linecap:butt;stroke-linejoin:round;stroke-opacity:1;paint-order:normal"
           d="m 604.78354,9.9910241 1.29168,-3.0574748"
           id="path5486" />
        <path
           style="fill:#ffffff;fill-opacity:1;stroke:#000000;stroke-width:0.719442;stroke-linecap:butt;stroke-linejoin:round;stroke-opacity:1;paint-order:normal"
           d="m 607.52022,9.8971549 0.42815,-2.9810413"
           id="path5488" />
        <path
           style="fill:#ffffff;fill-opacity:1;stroke:#000000;stroke-width:0.719442;stroke-linecap:butt;stroke-linejoin:round;stroke-opacity:1;paint-order:normal"
           d="m 609.35453,8.7833944 0.36564,-1.3646713"
           id="path5490" />
      </g>
      <g
         id="g5502"
         transform="matrix(0.62430059,0,0,0.62430059,240.82499,5.0690476)"
         inkscape:label="g28155">
        <ellipse
           style="display:inline;fill:#ee9a9d;fill-opacity:1;stroke:none;stroke-width:0.702142;stroke-linecap:butt;stroke-linejoin:round;stroke-opacity:1;paint-order:normal"
           id="ellipse5494"
           cx="615.82251"
           cy="123.20885"
           rx="3.5692961"
           ry="2.4734194"
           transform="rotate(-10.817019)" />
        <path
           style="fill:#ffffff;fill-opacity:1;stroke:#000000;stroke-width:0.719442;stroke-linecap:butt;stroke-linejoin:round;stroke-opacity:1;paint-order:normal"
           d="m 626.43846,6.646088 0.27431,-2.1647864"
           id="path5496" />
        <path
           style="fill:#ffffff;fill-opacity:1;stroke:#000000;stroke-width:0.719442;stroke-linecap:butt;stroke-linejoin:round;stroke-opacity:1;paint-order:normal"
           d="m 627.6768,6.6001022 0.97188,-2.7617859"
           id="path5498" />
        <path
           style="fill:#ffffff;fill-opacity:1;stroke:#000000;stroke-width:0.719442;stroke-linecap:butt;stroke-linejoin:round;stroke-opacity:1;paint-order:normal"
           d="M 629.41576,6.6630129 629.87948,4.579608"
           id="path5500" />
      </g>
    </g>
  </g>
</svg>
